<?xml version="1.0" standalone="no"?>
<!DOCTYPE svg PUBLIC "-//W3C//DTD SVG 20010904//EN"
 "http://www.w3.org/TR/2001/REC-SVG-20010904/DTD/svg10.dtd">
<svg version="1.0" xmlns="http://www.w3.org/2000/svg"
 width="1024.000000pt" height="1024.000000pt" viewBox="0 0 1024.000000 1024.000000"
 preserveAspectRatio="xMidYMid meet">

<g transform="translate(0.000000,1024.000000) scale(0.100000,-0.100000)"
fill="#000000" stroke="none">
<path d="M4880 9689 c-115 -13 -326 -56 -445 -90 -304 -87 -697 -294 -939
-495 -449 -373 -739 -803 -900 -1338 -123 -406 -145 -862 -60 -1281 53 -260
98 -393 214 -633 149 -306 266 -474 503 -718 213 -220 400 -355 682 -493 363
-178 729 -270 1150 -288 326 -14 746 59 1061 182 494 194 896 510 1197 938
114 162 180 277 241 418 174 404 257 817 243 1209 -10 263 -55 504 -143 760
-108 318 -233 545 -433 795 -158 197 -208 250 -344 369 -206 179 -351 274
-653 427 -223 112 -532 203 -800 234 -139 16 -447 18 -574 4z m471 -169 c198
-20 415 -65 569 -118 l56 -20 32 29 c36 32 77 37 121 15 37 -19 105 -95 130
-145 15 -29 35 -48 69 -65 67 -34 241 -151 352 -236 127 -98 353 -329 455
-465 276 -368 427 -724 487 -1145 20 -142 17 -624 -5 -759 -39 -241 -125 -509
-232 -726 -80 -161 -226 -370 -356 -508 -59 -63 -74 -73 -199 -128 -344 -154
-448 -186 -810 -249 -299 -52 -660 -87 -660 -64 0 22 99 294 132 364 32 66 56
101 112 155 144 142 207 161 841 260 206 32 347 76 506 157 253 128 385 289
483 590 64 195 67 221 12 121 -130 -239 -283 -393 -502 -505 -166 -85 -331
-132 -679 -193 -110 -20 -227 -42 -259 -50 -32 -9 -60 -14 -62 -12 -2 2 130
98 376 270 41 28 139 93 218 142 78 50 183 120 233 155 186 134 421 312 416
316 -8 8 -186 -73 -316 -145 -69 -38 -261 -155 -426 -259 -165 -105 -343 -217
-395 -250 -52 -34 -128 -89 -169 -123 -83 -70 -84 -71 10 61 92 131 201 254
295 331 343 285 682 458 1098 561 242 59 251 72 59 83 -333 18 -668 -56 -998
-220 -319 -158 -516 -355 -667 -666 -31 -63 -66 -142 -78 -177 -21 -57 -49
-101 -37 -56 15 53 29 263 25 364 -4 94 -11 133 -37 210 -17 52 -38 106 -45
119 l-14 25 -16 -32 c-9 -17 -61 -100 -117 -184 -55 -84 -114 -181 -130 -215
-33 -69 -47 -123 -31 -123 15 0 42 -74 58 -158 22 -115 18 -268 -11 -407 -14
-66 -25 -130 -25 -144 0 -23 -1 -23 -60 -17 -51 6 -59 5 -54 -8 3 -8 2 -22 -3
-31 -7 -13 -15 1 -31 57 -77 257 -87 539 -28 770 47 186 118 321 320 608 119
169 138 205 359 665 120 249 140 305 164 443 19 112 9 230 -27 338 -22 64
-155 344 -164 344 -3 0 -3 -6 -1 -12 2 -7 16 -67 31 -133 52 -236 42 -411 -33
-565 -53 -110 -174 -226 -293 -283 l-88 -42 6 -77 c9 -145 -44 -244 -269 -501
-280 -318 -371 -578 -320 -913 7 -50 12 -97 10 -103 -3 -7 -22 30 -43 81 -105
251 -187 387 -311 517 -279 293 -715 484 -1187 522 -142 11 -347 6 -375 -10
-22 -12 38 -33 208 -76 223 -57 340 -99 544 -199 335 -165 586 -356 781 -596
76 -93 146 -192 140 -198 -3 -2 -67 41 -143 95 -76 55 -185 131 -243 168 -58
37 -152 98 -210 136 -180 116 -371 228 -475 279 -55 26 -142 69 -194 94 -52
25 -98 46 -103 46 -20 0 192 -161 377 -287 430 -292 506 -343 675 -452 69 -45
143 -96 164 -115 l40 -33 -95 23 c-51 13 -168 35 -259 49 -493 77 -767 197
-994 435 -67 71 -93 109 -149 215 -75 144 -78 134 -21 -55 103 -334 264 -517
572 -650 143 -62 335 -105 647 -145 171 -22 382 -78 480 -127 79 -40 187 -146
233 -228 36 -64 142 -358 142 -393 0 -20 16 -20 -230 4 -146 15 -496 66 -610
90 -208 44 -464 132 -661 228 -98 48 -112 58 -171 129 -162 194 -245 316 -336
497 -133 265 -208 498 -249 780 -24 167 -24 534 0 700 69 467 271 905 589
1273 182 211 558 516 715 581 18 7 42 33 64 69 89 148 173 190 242 121 l31
-31 75 26 c294 100 662 145 952 116z"/>
<path d="M6045 8908 c-13 -122 -6 -787 8 -814 l12 -24 28 35 c58 73 61 318 7
620 -16 94 -30 189 -30 213 0 68 -17 48 -25 -30z"/>
<path d="M4230 8920 c0 -27 -14 -129 -31 -227 -28 -164 -30 -191 -25 -338 3
-88 10 -179 17 -202 12 -46 44 -82 59 -67 14 14 22 715 9 807 -13 87 -29 102
-29 27z"/>
<path d="M4536 8338 c-108 -223 -143 -374 -124 -541 12 -111 33 -166 198 -512
81 -170 162 -347 181 -393 18 -45 36 -81 40 -80 10 4 288 357 315 400 17 27
24 52 24 88 0 74 -31 103 -140 129 -158 39 -269 113 -376 253 -92 119 -121
228 -110 418 5 100 40 299 61 353 4 9 4 17 1 17 -3 0 -35 -60 -70 -132z"/>
<path d="M5071 8209 c-88 -17 -168 -85 -208 -176 -13 -27 -17 -67 -18 -143 0
-98 2 -109 30 -159 63 -115 160 -167 294 -159 128 8 227 74 278 185 21 46 25
66 21 131 -8 163 -98 279 -245 317 -63 16 -86 17 -152 4z"/>
<path d="M3721 7965 c85 -150 172 -354 224 -530 15 -49 42 -135 61 -190 34
-97 37 -101 92 -140 31 -22 60 -41 64 -43 17 -7 6 34 -58 215 -106 306 -234
548 -353 673 -52 54 -53 54 -30 15z"/>
<path d="M6552 7946 c-96 -104 -189 -254 -253 -407 -41 -100 -159 -447 -159
-471 0 -14 15 -7 73 35 71 53 72 55 90 123 49 190 172 518 251 671 25 48 44
88 42 90 -2 2 -21 -16 -44 -41z"/>
<path d="M3140 7641 c0 -8 327 -268 394 -313 23 -16 51 -28 64 -28 22 0 22 1
8 29 -16 30 -145 155 -211 204 -75 55 -255 131 -255 108z"/>
<path d="M7084 7622 c-88 -31 -163 -83 -266 -187 -119 -119 -130 -135 -92
-135 29 0 63 25 209 154 55 49 127 109 160 133 33 25 62 47 64 49 10 9 -27 2
-75 -14z"/>
<path d="M1300 4043 c5 -16 86 -316 180 -668 94 -352 173 -648 176 -657 5 -16
19 -18 119 -18 l113 0 11 33 c6 17 71 239 146 491 74 253 136 461 138 463 2 2
26 -70 52 -159 26 -90 92 -311 145 -493 l98 -330 116 -3 c64 -1 116 0 116 3 0
4 81 307 180 676 99 368 180 673 180 679 0 6 -47 10 -125 10 l-124 0 -10 -37
c-6 -21 -55 -220 -111 -443 -123 -495 -120 -483 -126 -477 -4 3 -284 945 -284
954 0 2 -47 3 -104 3 l-104 0 -11 -32 c-6 -18 -69 -233 -141 -477 -71 -244
-132 -446 -134 -449 -6 -5 -3 -16 -126 478 -56 223 -105 422 -111 443 l-10 37
-129 0 -129 0 9 -27z"/>
<path d="M3230 3385 l0 -685 464 0 464 0 7 88 c4 48 9 95 11 105 5 16 -16 17
-345 17 l-351 0 0 200 0 200 258 2 257 3 10 103 11 102 -268 0 -268 0 0 170 0
170 324 0 c301 0 325 1 330 18 2 9 8 56 12 105 l6 87 -461 0 -461 0 0 -685z"/>
<path d="M4390 3385 l0 -685 434 0 433 0 7 77 c3 42 6 89 6 105 l0 28 -315 0
-315 0 0 580 0 580 -125 0 -125 0 0 -685z"/>
<path d="M5420 3385 l0 -685 434 0 433 0 7 77 c3 42 6 89 6 105 l0 28 -315 0
-315 0 0 580 0 580 -125 0 -125 0 0 -685z"/>
<path d="M6450 3385 l0 -685 125 0 125 0 0 295 0 295 239 0 238 0 7 61 c3 34
6 82 6 105 l0 44 -245 0 -245 0 0 180 0 180 309 0 308 0 7 61 c3 34 6 82 6
105 l0 44 -440 0 -440 0 0 -685z"/>
<path d="M7550 3385 l0 -685 125 0 125 0 0 685 0 685 -125 0 -125 0 0 -685z"/>
<path d="M8006 4009 c-3 -34 -6 -82 -6 -105 l0 -44 210 0 210 0 0 -580 0 -580
125 0 125 0 0 580 0 580 204 0 203 0 7 77 c3 42 6 89 6 105 l0 28 -539 0 -538
0 -7 -61z"/>
<path d="M3432 2225 c-76 -21 -105 -39 -149 -89 -51 -58 -82 -150 -90 -270
-15 -232 54 -382 198 -432 66 -23 240 -26 311 -5 l46 13 -5 57 c-3 31 -7 58
-9 60 -2 2 -30 -4 -62 -13 -85 -24 -178 -21 -232 7 -66 33 -92 90 -98 219 -8
169 20 269 89 321 35 25 139 34 220 18 33 -7 63 -10 66 -8 2 3 8 30 12 60 7
54 7 56 -18 61 -67 15 -228 16 -279 1z"/>
<path d="M6102 2225 c-76 -21 -105 -39 -149 -89 -51 -58 -82 -150 -90 -270
-15 -232 54 -382 198 -432 66 -23 240 -26 311 -5 l46 13 -5 57 c-3 31 -7 58
-9 60 -2 2 -30 -4 -62 -13 -85 -24 -178 -21 -232 7 -66 33 -92 90 -98 219 -8
169 20 269 89 321 35 25 139 34 220 18 33 -7 63 -10 66 -8 2 3 8 30 12 60 7
54 7 56 -18 61 -67 15 -228 16 -279 1z"/>
<path d="M6673 2230 c-23 -5 -52 -14 -65 -21 -95 -48 -143 -179 -103 -277 33
-78 71 -102 253 -158 145 -44 172 -65 172 -129 0 -52 -27 -89 -77 -106 -53
-17 -222 -6 -306 21 -38 12 -70 20 -72 18 -2 -2 -7 -31 -10 -64 l-7 -61 43
-11 c154 -38 353 -39 438 -1 57 25 78 44 103 93 43 84 33 197 -24 262 -41 46
-84 67 -211 103 -118 33 -162 53 -171 76 -9 26 -7 74 5 97 24 45 129 60 268
38 35 -6 65 -9 67 -7 2 1 6 28 10 58 5 47 4 57 -10 62 -29 11 -259 17 -303 7z"/>
<path d="M3860 1830 l0 -400 250 0 250 0 0 44 c0 24 3 51 6 60 5 14 -14 16
-180 16 l-186 0 0 340 0 340 -70 0 -70 0 0 -400z"/>
<path d="M4440 1830 l0 -400 70 0 70 0 0 400 0 400 -70 0 -70 0 0 -400z"/>
<path d="M4770 1830 l0 -400 70 0 70 0 2 291 3 291 178 -291 179 -291 59 0 59
0 0 400 0 400 -70 0 -70 0 -2 -260 -3 -261 -164 261 -164 260 -73 0 -74 0 0
-400z"/>
<path d="M5560 1830 l0 -400 70 0 70 0 0 400 0 400 -70 0 -70 0 0 -400z"/>
</g>
</svg>
