<?xml version="1.0" encoding="UTF-8"?>
<!DOCTYPE svg PUBLIC "-//W3C//DTD SVG 1.1//EN" "http://www.w3.org/Graphics/SVG/1.1/DTD/svg11.dtd">
<!-- Creator: CorelDRAW -->
<svg xmlns="http://www.w3.org/2000/svg" xml:space="preserve" width="101.6mm" height="101.6mm" version="1.1" style="shape-rendering:geometricPrecision; text-rendering:geometricPrecision; image-rendering:optimizeQuality; fill-rule:evenodd; clip-rule:evenodd"
viewBox="0 0 10160 10160"
 xmlns:xlink="http://www.w3.org/1999/xlink"
 xmlns:xodm="http://www.corel.com/coreldraw/odm/2003">
 <defs>
  <style type="text/css">
   <![CDATA[
    .fil7 {fill:#FEFEFE}
    .fil1 {fill:#70CDE7}
    .fil8 {fill:#79C25D}
    .fil4 {fill:#77C15D}
    .fil3 {fill:#08B1E1}
    .fil9 {fill:#0D89B7}
    .fil2 {fill:#0B87B7}
    .fil10 {fill:#316B7E}
    .fil5 {fill:#234D60}
    .fil0 {fill:#233B47}
    .fil6 {fill:#233944}
   ]]>
  </style>
 </defs>
 <g id="Capa_x0020_1">
  <metadata id="CorelCorpID_0Corel-Layer"/>
  <g id="_1218805256640">
   <g>
    <path class="fil0" d="M3934.57 3636.73c12.12,14.54 110.14,79.51 131.59,86 -43.38,-200.05 -223.95,-644.54 -368.43,-823.85 -36.42,-45.2 -29.71,-38.05 -72.77,-75.48l86.44 180.37c52.41,113.94 118.51,296.78 152.55,418.74 21.72,77.8 49.97,141.75 70.62,214.22z"/>
    <path class="fil0" d="M5880.02 2682.21c5.27,18.09 11.44,39.47 22.16,51.93 13.99,-6.65 25.16,-15.34 34.28,-28.52 6.81,-9.84 20.09,-28.6 23.2,-38.41 9.02,-72.52 19.5,-136.84 18.78,-211.95 -0.68,-70.6 -6.08,-141.82 -13.24,-211.51 -6.65,-64.77 -23.65,-130.91 -32.76,-195.35l-29.47 -191.51c-0.18,-1.74 -0.76,-2.21 -1.38,-3.19 -31.79,107.52 -20.9,283.6 -20.78,402.76 0.14,135.58 4.75,291.4 -0.79,425.75z"/>
    <path class="fil0" d="M4091.52 2688.45c5.54,15.15 27.13,38.69 45.36,43.52 10.7,-7.42 15.12,-17.27 17.14,-31.16 4.67,-64.65 -7.28,-145.07 -5.12,-215.75 2.14,-69.76 2.74,-142.92 6.97,-211.77 4.44,-72.32 15.11,-372.93 -27.46,-410.73 -0.65,0.89 -1.27,2.24 -1.55,2.92 -0.29,0.68 -1.12,2.12 -1.44,2.97 -9.89,26.33 4.19,-19.16 -2.12,6.25l-8.12 93.57c-5.15,33.2 -8.06,68.08 -12.46,101.42 -8.42,63.8 -27.75,130.13 -33.63,195.22 -17.94,198.63 -13.03,235.3 22.43,423.54z"/>
    <path class="fil0" d="M4680.5 3907.26c0.24,18.89 11.64,46.68 18.17,60.39 27.51,-5.92 28.38,-22.72 41.84,-40.92 41.74,-56.44 249.36,-296.51 253.61,-333.25 -7.83,-5.08 0.63,-2.81 -9.05,2.31l-7.73 4.59c-36.25,17.11 -39.59,21.15 -80.04,47.08 -60.03,38.48 -190.07,155.68 -210.11,229.37 -4.51,16.56 3.11,15.06 -6.69,30.43z"/>
    <path class="fil0" d="M6542.65 3441.85c-3.93,16.49 -18.26,28.04 -21.56,49.75l36.54 0.61c34.51,-21.32 17.56,-6.14 55.61,-37.87l127.09 -105.73c39.53,-46.47 220.83,-172.73 233.36,-193.98 -90.86,5.84 -234.25,90.7 -289.72,154.57 -12.59,14.49 -31.13,28.62 -46.07,42.81 -21.81,20.71 -72.73,79.41 -95.25,89.84z"/>
   </g>
   <g>
    <path class="fil1" d="M5396.83 5358.45l-3.78 4.41c-0.46,0.55 -1.37,1.64 -1.88,2.26l-9.61 11.41c-32.1,36.76 -62.94,110.15 -73.29,157.31 189.53,-9.21 367.87,-42.07 551.31,-68.84 77.92,-11.38 177.3,-36.54 251.65,-56.82 338.14,-92.21 569.26,-182.84 860.73,-371.68 46.59,-30.19 142.57,-98.56 192.24,-112.41l43.17 -98.84c-30.95,3.97 -159.78,78.45 -201.83,96.56 -197.45,85.01 -456.18,168.12 -668.3,207.24 -86.01,15.86 -169.91,24.42 -257.24,35.02 -223.84,27.16 -275.73,22.7 -496.13,88.91 -147.43,44.28 -141.3,102.81 -187.04,105.47z"/>
    <path class="fil1" d="M4730.32 5534.01c-10.94,-56.82 -41.38,-114.48 -74.87,-159.56l-13.98 -15.48c-24.1,-3.43 -63.19,-44.58 -86.41,-57.99 -26.73,-15.44 -62.74,-37.06 -91.09,-48.76 -192.88,-79.65 -502.68,-68.73 -736.51,-114.16 -75.15,-14.6 -155.77,-34.9 -230.59,-53.03 -178.78,-43.31 -453.83,-149.29 -608.08,-241.11 0.01,70.41 88.76,122.05 151.23,164.57 330.34,224.85 720.96,383.02 1122.28,456.56 176.85,32.41 251.08,37.56 417.4,56.72 41.93,4.82 117.38,1.61 150.62,12.24z"/>
    <path class="fil1" d="M5091.91 1759.11c79.84,-36.51 153.86,134.65 53.09,159.58 -103.59,25.63 -135.31,-121.99 -53.09,-159.58zm-128.41 -147.65c10.73,8.66 7.86,-1.44 5.72,15.93l-106.83 195.01c-35.61,85.64 -35.8,181.51 12.15,255.25 38.31,58.9 108.09,109.32 206.51,115.3 126.62,7.71 188.16,-67.26 233.62,-90.42l1.07 12.72c27.47,-30.86 7.76,-149.44 -4.84,-185.9 -20.91,-60.48 -50.59,-101.64 -86.09,-138.46l-101.66 -118.57c-18.63,-21.42 -30.9,-40.6 -47.49,-62.46 -44.52,-58.66 -55.48,-106.9 -112.16,1.6z"/>
   </g>
   <g>
    <path class="fil2" d="M5218.29 5792.39c-23.21,24.66 -76.51,206.71 -85.98,252.22l-0.49 25.14c52.2,25.36 602.03,-22.09 702.6,-28.08 96.48,-22.73 199.25,-64.22 280.36,-105.44 316.8,-161.01 297.86,-182.01 518.86,-357.52 46.99,-37.32 117.39,-97.74 144.38,-151.46 -20.02,13.51 -293.68,125.47 -341.06,145.07 -273.36,113.1 -485.66,138.89 -776.15,185.14 -143.03,22.78 -296.88,29.06 -440.98,38.69l-1.54 -3.76z"/>
    <path class="fil2" d="M4966.13 5448.62c0.1,5.47 0.8,16.05 0.05,21.13 -4.12,28.05 1.37,8.06 -6.9,16.19l39.96 200.93c6.65,44 0.58,50.84 23.72,54.06l59.22 -283.2c-25.65,-14.12 -84.96,-15.01 -116.05,-9.11z"/>
   </g>
   <g>
    <path class="fil3" d="M3281.33 5446.82c99.92,34.85 206.31,91.29 335.05,136.7 116.29,41.02 239.31,80.73 366.77,107.5 100.44,21.09 784.7,132.52 833.18,100.8 -1.71,-37.21 -68.19,-231.6 -86.01,-257.81 -33.24,-10.63 -108.69,-7.42 -150.62,-12.24 -166.32,-19.16 -240.55,-24.31 -417.4,-56.72 -401.32,-73.54 -791.94,-231.71 -1122.28,-456.56 -62.47,-42.52 -151.22,-94.16 -151.23,-164.57l-52.19 -24.93c28.15,110.67 140.77,262.2 196.23,340.76 37.07,52.51 196.54,264.36 248.5,287.07z"/>
    <path class="fil3" d="M5308.27 5533.84c-18.11,24.55 -91.48,221.86 -89.98,258.55l1.54 3.76c144.1,-9.63 297.95,-15.91 440.98,-38.69 290.49,-46.25 502.79,-72.04 776.15,-185.14 47.38,-19.6 321.04,-131.56 341.06,-145.07 27.21,-7.23 176.35,-191.75 210.11,-234.85 31.89,-40.72 62.24,-83.33 94.68,-129.67 29.78,-42.52 57.28,-85.4 81.39,-138.64 -49.67,13.85 -145.65,82.22 -192.24,112.41 -291.47,188.84 -522.59,279.47 -860.73,371.68 -74.35,20.28 -173.73,45.44 -251.65,56.82 -183.44,26.77 -361.78,59.63 -551.31,68.84z"/>
    <path class="fil3" d="M5315.74 2115.25l-1.07 -12.72c-45.46,23.16 -107,98.13 -233.62,90.42 -98.42,-5.98 -168.2,-56.4 -206.51,-115.3 -47.95,-73.74 -47.76,-169.61 -12.15,-255.25l106.83 -195.01c2.14,-17.37 5.01,-7.27 -5.72,-15.93l-106.06 125.31c-17.73,22.23 -33.35,44.4 -49.72,64.55 -108.71,133.83 -138.97,284.81 -40.24,429.89 65.97,96.95 193.41,154.15 320.24,124.92 103.16,-23.78 228.05,-135.49 228.02,-240.88z"/>
    <path class="fil3" d="M4966.13 5448.62c31.09,-5.9 90.4,-5.01 116.05,9.11 7.02,-30.46 7.82,-59.85 14.46,-91.62 6.14,-29.42 13.29,-59.4 19.42,-89.75 27.97,-138.43 34.19,-262.89 3.83,-404.3 -16.56,-77.1 -65.71,-158.41 -66.69,-161.64 -7.46,47.47 -31.1,111.01 -42.54,163.68 -13.05,60.1 -22.68,118.31 -32.53,180.16 -11.88,74.68 -30.47,332.4 -12,394.36z"/>
    <path class="fil3" d="M3815.18 3762.44c-12.29,-47.2 -154.41,-140.15 -224.88,-163.43 -46.47,-15.36 -134.11,-9.88 -185.78,-7.62 -66.93,2.94 -123.41,-7.68 -187.19,-10.87 9.11,10.67 13.61,12.12 28.93,19.59 154.05,75.18 234.74,96.39 405.19,132.51 35.94,7.61 133.83,29.72 163.73,29.82z"/>
    <path class="fil3" d="M6198.4 3771.28l319.28 -73.37c56.43,-16.49 261.81,-77.74 285.76,-107.95 -4.19,-2.11 -163.44,1.43 -190.07,0.33 -184.66,-7.59 -234.64,31.81 -366.14,128.72 -20.18,14.87 -36.29,28.17 -48.83,52.27z"/>
   </g>
   <g>
    <path class="fil4" d="M3934.57 3636.73c-20.65,-72.47 -48.9,-136.42 -70.62,-214.22 -34.04,-121.96 -100.14,-304.8 -152.55,-418.74l-86.44 -180.37c43.06,37.43 36.35,30.28 72.77,75.48 144.48,179.31 325.05,623.8 368.43,823.85 72.49,-136.41 122.01,-275.3 99.29,-440.65 -41.75,-303.87 -192.13,-512.07 -460.95,-648.38 -72.22,-36.62 -340.78,-142.83 -412.03,-137.85 -1.89,23.76 39.79,136.52 48.69,167.07 15.98,54.79 32.21,125.21 43.17,181.47 41.01,210.53 141.43,444.11 288.89,603.89 47.45,51.4 197.57,159.34 261.35,188.45z"/>
    <path class="fil4" d="M5987.17 3729.64c-1.15,-0.84 -14.76,2.3 -6.82,-31.37l72.56 -224.46c46.46,-148.53 151.09,-386.27 246.72,-515.14 28.01,-37.74 83.83,-110.61 122.55,-134.94 -10.52,31.77 -29.51,58.57 -44.96,89.85 -15.12,30.61 -27.73,60.68 -42.57,92.92 -94.65,205.61 -155.2,398.54 -208.93,617.94 33.38,-22.96 66.9,-32.83 134.36,-82.9 69.68,-51.7 118.32,-89.21 168.15,-157.99 125,-172.49 187.36,-311.76 231.47,-534.71 11.56,-58.39 23.16,-124.84 39.07,-180.9 10.52,-37.06 46.59,-139.88 45.53,-172.92 -101.61,6.99 -323.87,96.3 -410.14,138.17 -83.41,40.47 -180.44,103.03 -241.17,169.68l-63.38 76.4c-136.65,168.16 -185.06,442.08 -131.43,651.27 14.42,56.23 51.34,158.54 77.16,203.03 20.18,3.06 7.04,0.04 11.83,-3.93z"/>
    <path class="fil4" d="M4091.52 2688.45c-35.46,-188.24 -40.37,-224.91 -22.43,-423.54 5.88,-65.09 25.21,-131.42 33.63,-195.22 4.4,-33.34 7.31,-68.22 12.46,-101.42l8.12 -93.57c6.31,-25.41 -7.77,20.08 2.12,-6.25 0.32,-0.85 1.15,-2.29 1.44,-2.97 0.28,-0.68 0.9,-2.03 1.55,-2.92 42.57,37.8 31.9,338.41 27.46,410.73 -4.23,68.85 -4.83,142.01 -6.97,211.77 -2.16,70.68 9.79,151.1 5.12,215.75 20.34,-20.15 65.12,-98.04 82.78,-128.72 14.08,-24.46 24.66,-42.06 38.63,-67.21 12.68,-22.81 28.24,-45.56 40.53,-69.42 121.71,-236.26 117.94,-434.32 -19.07,-660.53 -12.98,-21.43 -27.63,-42.45 -42.07,-63.84 -8.81,-13.07 -15.86,-22.41 -22.98,-32.08 -8.78,-11.89 -14.4,-20.93 -22.78,-32.33l-46.11 -59.65c-16.47,-19 -32.31,-39.85 -66.03,-47.59 -9.63,20.74 -28.21,34.21 -42.64,58.78 -37.21,63.34 -78.43,135.48 -108.65,200.45 -44.21,95.04 -84.19,198.99 -96.54,313.92 -17.16,159.74 9.29,288.9 95.36,408.12 28.84,39.94 105.94,148.52 147.07,167.74z"/>
    <path class="fil4" d="M5880.02 2682.21c5.54,-134.35 0.93,-290.17 0.79,-425.75 -0.12,-119.16 -11.01,-295.24 20.78,-402.76 0.62,0.98 1.2,1.45 1.38,3.19l29.47 191.51c9.11,64.44 26.11,130.58 32.76,195.35 7.16,69.69 12.56,140.91 13.24,211.51 0.72,75.11 -9.76,139.43 -18.78,211.95 13.62,-4.96 50.61,-34.9 59.75,-43.76 56.14,-54.39 90.93,-106.04 127.53,-177.49 123.11,-240.36 9.04,-569.33 -128.48,-784.01 -37.73,-58.91 -43.72,-73.72 -90.88,-115.9 -19.66,5.63 -42.14,31.01 -54.12,46.78 -214.17,281.95 -334.08,460.63 -149.71,820.86l156.27 268.52z"/>
    <path class="fil4" d="M2748.25 4110.95c50.19,64.49 72.14,162.75 161.11,279.05 48.84,63.85 27.68,30.97 54.4,55.52l34.92 37.14c8.79,8.53 9.41,10.45 18.06,19.91l58.53 47.36c88.87,70.12 135.38,101.94 253.64,157.01 261.99,122 543.7,140.55 828.44,200.46 38.19,8.03 79.21,23.95 115.94,32.38 -5.16,-13.89 -7.12,-12.19 -25.14,-26.1 -54.76,-42.26 -155.3,-124.38 -209.68,-146.17 -16.31,8.88 -156.13,-71.58 -178.16,-84.05 -58.06,-32.87 -117.21,-64.65 -175.45,-95.38 -278.51,-146.93 -550.2,-303.77 -793.3,-493.69l-107.14 -96.03c-26.82,-27.23 -32.03,-50.78 -67.14,-70.54 6.86,80.34 9.07,110.38 30.97,183.13z"/>
    <path class="fil4" d="M6011.09 4762.3l-174.26 121.18c-22.02,15.85 -34.95,29.59 -58.28,42.97 14.24,9.91 41.61,-1.81 57.73,-5.29l425.1 -87.24c270.68,-58.37 417.37,-87.99 641.1,-239.37 15.42,-10.43 26.11,-18.56 42.17,-29.89 16.45,-11.6 21.83,-21.96 37.71,-34.18 15.05,-11.6 23.43,-22.2 37.93,-34.02 49.03,-39.98 66.56,-60.86 105.46,-114.87 65.65,-91.15 56.94,-73.25 118.26,-177.83 11.32,-19.3 38.5,-84.72 50.5,-95.64l25.02 -190.41c-27.67,10.74 -38.81,30.82 -54.41,48.9 -133.16,154.35 -378.01,320.48 -553.76,423.95 -110.86,65.27 -228.11,133.91 -344.17,193.44l-333.92 174.6c-0.35,0.2 -10.99,5.24 -11.02,5.24 -10.56,1.98 -3.7,3.68 -11.16,-1.54z"/>
    <path class="fil4" d="M3811.05 4625.19c-13.72,-32.39 -150.99,-115.25 -187.91,-140.53 -66.66,-45.63 -130.71,-86.94 -197.32,-132.93 -142.12,-98.14 -198.44,-130.98 -332.21,-239.25 -20.91,-16.93 -38.87,-26.28 -44.7,-39.2 35.27,8.29 140.57,62.1 179.53,82.16 57.41,29.55 111.57,52.23 178.17,88.63 71.06,38.83 265.75,150.57 335.22,198.04 53.87,36.82 108.04,68.71 161.68,105.1 24.82,16.84 56.42,33.09 81.26,49.9 28.57,19.34 52.94,35.86 81.69,53.81 56.14,35.07 277.07,208.78 315.9,218.67 -16.17,-50.09 -75.96,-113.01 -101.93,-153.13 -22.61,-34.92 -17.73,-22.26 -44.03,-44.97 -28.89,-24.93 -56.1,-61.57 -83.82,-89.72l-42.63 -41.95c-14.47,-15.86 -26.56,-35.48 -45.22,-45.42 -2.61,4.13 1.59,9.18 -15.38,-3.34l-115.93 -92.37c-138.16,-104.76 -283.29,-189.11 -446.35,-268.93 -106.18,-51.99 -226.44,-92.65 -345.78,-132.68l-264.42 -91.2c-25.8,-11.34 -59.24,-27.54 -84.75,-34.42 9.53,74.32 375.15,349.37 469.95,411.34 43.24,28.26 88.13,59.06 132.06,88.16 73.83,48.91 351.88,234.38 416.92,254.23z"/>
    <path class="fil4" d="M5866.9 4599.96c-20.04,4.79 -0.87,4.45 -30.71,29.1l-77.21 104.67c-19.91,28.57 -84.12,93.52 -97.38,143.4 12.28,-3.45 86.13,-73.12 108.34,-90.02 69.2,-52.65 439.58,-285.63 530.67,-341.52 53.92,-33.08 108.73,-68.22 162.62,-104.05 95.34,-63.41 447.48,-265.52 530.68,-273.47 -13.43,15.94 -72.37,60.51 -91.05,73.89 -92.06,65.92 -200.4,151.83 -292.54,215.21 -123.95,85.26 -173.44,119.56 -303.82,199.97 -21.01,12.96 -33.36,20.68 -50.63,34.16l-35.12 28.35c-10.36,10.96 -3.98,0.54 -9.93,15.15 63.61,-19.04 501.1,-307.61 554.7,-346.5 43.7,-31.7 89.64,-61.36 131.52,-92.82 73.52,-55.22 147.77,-111.05 215.99,-173.65l85.11 -84.15c14.01,-12.02 40.6,-48.78 47.74,-71.49 -128.08,41.52 -260.16,95.31 -389.11,140.57 -128.72,45.18 -334.77,139.65 -456.03,204.43 -164.73,87.99 -220.51,138.57 -354.42,234.06l-72.32 58.99c-12.93,12.54 -94.28,92.11 -107.1,95.72z"/>
    <path class="fil4" d="M6542.65 3441.85c22.52,-10.43 73.44,-69.13 95.25,-89.84 14.94,-14.19 33.48,-28.32 46.07,-42.81 55.47,-63.87 198.86,-148.73 289.72,-154.57 -12.53,21.25 -193.83,147.51 -233.36,193.98l-127.09 105.73c-38.05,31.73 -21.1,16.55 -55.61,37.87 77.97,-3.43 155.52,8.13 236.96,-1.13 66.55,-7.56 131.54,-42.67 170.22,-74.63 46.47,-38.39 176.68,-216.43 159.02,-327.33 -3.01,-2.31 -1.97,-2.34 -8.44,-5.25 -47.38,-21.34 -160.72,-19.79 -205.89,-14.48 -188.63,22.19 -316.26,182.41 -366.85,372.46z"/>
    <path class="fil4" d="M3509.86 3493.7c-11.71,-10.48 -49.73,-21.95 -66.02,-32.01l-275.68 -215.35c-28.51,-23.69 -87.37,-63.48 -108.07,-92.47 80.87,-4.91 222.56,83.31 289.77,139.49 10.76,8.99 8.61,12.06 20.44,21.67l47.11 37.77c10.15,8.62 9.64,12.58 20.41,21.72l50.1 41.85c-13.57,-55.44 -86.71,-184.11 -123.87,-226.18l-59.39 -59.18c-86.09,-57.53 -270.7,-95.36 -380.77,-42.91 4.97,83.09 48.29,204.56 97.87,270.78 138.55,185.06 306.43,121.92 488.1,134.82z"/>
    <path class="fil4" d="M4276.27 3829.22c-93.69,14.83 -166.86,118.97 -78.42,229.03 20.61,25.65 47.34,37.55 95.83,35.46 177.71,-7.66 132.59,-288.23 -17.41,-264.49z"/>
    <path class="fil4" d="M5735.26 3830.63c-177.59,29.32 -122.58,287.83 34.9,261.85 166.92,-27.53 119.41,-287.31 -34.9,-261.85z"/>
   </g>
   <g>
    <path class="fil5" d="M4614.94 4917.77c4.44,10.05 -10.57,9.74 9.88,7.4l4.49 -26.14c50.12,-2.12 127.51,-15.59 164.66,-33.2 25.31,-107.15 -7.51,-172.25 66.91,-357.24 72.37,-179.86 270.77,-399.36 398.29,-558.65l70.99 -85.43c9.37,-12.26 17.73,-17.56 26.83,-27.98 4.43,-5.08 7.65,-9.58 12.1,-13.4 19.93,-17.11 11.97,-1.11 25.86,-27.73 12.02,-23.03 -2.94,-14.13 18.29,-16.51 27.6,-37.52 127.29,-264.91 159.37,-328.06 135.33,-266.36 227.05,-461.5 137.54,-773.65 -9.3,-32.45 -118.56,-283.66 -154.08,-320.38 -9.86,-10.19 2.03,-2.13 -11.74,-8.55 3.36,56.95 48.3,208.71 58.38,318.8 10.42,113.79 -0.88,231.49 -40.66,328.96 -26.36,64.59 -60.69,124.3 -109.35,169.89 -16.76,15.7 -27.88,33.46 -45.58,47.4 -86.92,68.46 -91.12,60.93 -170.8,108.48 -21.55,12.86 -44.35,19.52 -65.06,32.43 -6.3,95.15 46.41,138.47 -66.29,323.5 -25.12,41.25 -111.36,150.91 -148.73,194.07 -13.32,15.38 -7.93,4.1 -34.73,37.37 -10.64,13.22 -20.82,23.14 -31.11,36.33 -75.82,97.24 -139.03,165 -200.02,282.96 -62.71,121.29 -116.49,311.14 -100.93,449.65 4.68,41.64 8.64,81.33 13.71,122.4 3.2,25.83 23.35,100.53 11.78,117.28z"/>
    <path class="fil5" d="M4680.5 3907.26c9.8,-15.37 2.18,-13.87 6.69,-30.43 20.04,-73.69 150.08,-190.89 210.11,-229.37 40.45,-25.93 43.79,-29.97 80.04,-47.08l7.73 -4.59c9.68,-5.12 1.22,-7.39 9.05,-2.31 24.04,-16.99 43.97,-47.89 47.54,-76.13 4.91,-38.72 -1.07,-78.12 -22.12,-102.91 -63.53,-74.82 -230.86,-54.09 -342.49,-157.36 -91.52,-84.66 -172.81,-161.93 -220.52,-282.92 -63.01,-159.79 -17.37,-453.48 38.29,-623.07 4.98,-15.18 5.74,-15.92 0.37,-24.2 -12.68,28.13 -32.26,55.65 -48.95,86.7 -131.14,243.97 -212.15,470.85 -112.77,751.05 36.07,101.68 120.82,270.18 171.04,370.83 43.54,87.25 91.12,186.36 127.99,278.32l31.97 69.56c6.46,14.06 5.3,15.7 16.03,23.91z"/>
    <path class="fil5" d="M4205.03 6041.34c47.93,31.66 304.36,93.44 345.68,101.99 67.62,14 349.81,55.34 397.03,27.2 2.68,-26.41 -7.18,-50.17 -16.91,-72.36l-25.59 -65.39c-0.43,-2.31 -1.54,-2.62 -2.52,-3.78l1.34 34.32c-64.08,15.66 -274.88,2.68 -351.31,-2.52 -114.93,-7.82 -233.05,-15.23 -347.72,-19.46z"/>
    <path class="fil5" d="M5132.31 6044.61l-10.27 18.5c-9.1,23.78 -40.78,93.17 -22.36,111.58 32.71,30.47 334.79,-20.04 393.73,-29.98 70.51,-11.9 261.69,-48.6 322.03,-91.96l18.98 -11.08c-100.57,5.99 -650.4,53.44 -702.6,28.08l0.49 -25.14z"/>
   </g>
   <g>
    <path class="fil6" d="M4614.94 4917.77c-89.99,-195.97 -88.93,-245.21 -214.19,-435.77 -31.97,-48.63 -84.6,-118.69 -123.09,-160.8 -15.82,-17.3 -32.65,-27.45 -48.28,-44.9 -61.24,-68.38 -192.15,-156.33 -271.25,-203 -81.9,-48.33 -159.74,-86.38 -252.84,-123.83 -81.38,-32.74 -194.06,-72.75 -285.45,-91.18 -153.29,-30.9 -177.77,-31.37 -328.86,-47.48 -66.52,-7.09 -302.33,-12.28 -349.36,16.22 12.81,37.04 127.65,53.66 177.22,66.74 300.19,79.17 447.05,131.89 718.03,281.02 106.11,58.4 204.78,126.85 298.22,201.28 22.38,17.83 49.58,36.4 68.37,54.27 20.72,19.7 41.01,47.37 61.27,64.06 18.66,9.94 30.75,29.56 45.22,45.42l42.63 41.95c27.72,28.15 54.93,64.79 83.82,89.72 26.3,22.71 21.42,10.05 44.03,44.97 25.97,40.12 85.76,103.04 101.93,153.13 -38.83,-9.89 -259.76,-183.6 -315.9,-218.67 -28.75,-17.95 -53.12,-34.47 -81.69,-53.81 -24.84,-16.81 -56.44,-33.06 -81.26,-49.9 -53.64,-36.39 -107.81,-68.28 -161.68,-105.1 -69.47,-47.47 -264.16,-159.21 -335.22,-198.04 -66.6,-36.4 -120.76,-59.08 -178.17,-88.63 -38.96,-20.06 -144.26,-73.87 -179.53,-82.16 5.83,12.92 23.79,22.27 44.7,39.2 133.77,108.27 190.09,141.11 332.21,239.25 66.61,45.99 130.66,87.3 197.32,132.93 36.92,25.28 174.19,108.14 187.91,140.53l227.42 142.32c54.38,21.79 154.92,103.91 209.68,146.17 18.02,13.91 19.98,12.21 25.14,26.1 -36.73,-8.43 -77.75,-24.35 -115.94,-32.38 -284.74,-59.91 -566.45,-78.46 -828.44,-200.46 -118.26,-55.07 -164.77,-86.89 -253.64,-157.01l-58.53 -47.36c-8.65,-9.46 -9.27,-11.38 -18.06,-19.91l-34.92 -37.14c-26.72,-24.55 -5.56,8.33 -54.4,-55.52 -88.97,-116.3 -110.92,-214.56 -161.11,-279.05 19,180.82 122.05,415.46 232.62,550.27 31.57,38.49 58.34,66.13 96.67,98.15 34.26,28.63 80.68,59.04 117.27,81.84 38.07,23.72 85.79,45.99 127.39,67.28 34.5,17.66 104.51,43.51 143.23,55.7 291.9,91.88 718.19,91.51 964.37,212.69 79.61,39.18 176.12,117.63 211.67,182.09l13.98 15.48c33.49,45.08 63.93,102.74 74.87,159.56 17.82,26.21 84.3,220.6 86.01,257.81 27.46,22.46 54.51,171.75 86.39,237.18 0.98,1.16 2.09,1.47 2.52,3.78l25.59 65.39c9.73,22.19 19.59,45.95 16.91,72.36 -47.22,28.14 -329.41,-13.2 -397.03,-27.2 -41.32,-8.55 -297.75,-70.33 -345.68,-101.99 -34.46,-8.3 -100.05,-33.88 -134.93,-47.74 -44.13,-17.54 -89.23,-39.21 -131.73,-58.8 -98.26,-45.3 -269.84,-147.8 -358.74,-212.82 -55.84,-40.84 -140.96,-97.04 -183.13,-147.01 -18.25,-21.63 -97.22,-81.3 -115.17,-128.15 -51.96,-22.71 -211.43,-234.56 -248.5,-287.07 -55.46,-78.56 -168.08,-230.09 -196.23,-340.76 -14.32,-38.42 -35.32,-73.48 -52.17,-113.55 -72.93,-173.39 -158.36,-477.77 -171.7,-658.18 -7.99,-108.02 -16.07,-208.01 -16.94,-317.6 -1.22,-152.87 37.01,-434.73 79.55,-585.47 23.95,-84.87 51.1,-168.31 82.99,-247.03 15.36,-37.93 29.89,-80.15 47.79,-117.56l180.03 -319.23c42.89,-72.03 152.21,-219.53 213.49,-286.16 7.16,-7.79 12.04,-9.98 19.55,-18.28l188.6 -188.37c10.24,-9.72 10.12,-12.19 19.21,-22.99 13.43,-15.97 264.69,-208.72 304.15,-233.39 35.03,-21.91 72.19,-42.33 106.23,-63.24 121.37,-74.57 73.02,-33.21 127.78,-122.26 25.77,-41.91 76.56,-109.19 133.41,-116.83 67.63,-9.09 84.2,24.9 109.12,60.11 24.21,-3.86 63.27,-24.21 87.23,-32.47 188.5,-64.99 525.12,-113.92 718.25,-115.55 216.08,-1.82 420.92,26.49 623.88,87.18 43.27,12.93 150.84,48.78 188.96,51.76 115.49,-138.68 218.08,19.8 277.98,116.24 25.26,40.68 46.01,42.04 95.86,69.52 60.58,33.4 275.43,177.06 318.16,219.43 11.32,11.23 11.17,11 22.56,19.81 16.94,13.11 28.71,24.7 44.78,39.64 11.28,10.49 30.84,25.77 44.53,36.1 42.88,32.34 157.44,157.98 207.94,206.75 53.25,51.42 171.73,223.66 213.51,285.99 251.05,374.5 379.77,781.09 387.86,1276.29 4.61,282 -37.66,599 -133.8,861.55 -48.16,131.52 -39.26,109.3 -98.02,234.05l-43.17 98.84c-24.11,53.24 -51.61,96.12 -81.39,138.64 -32.44,46.34 -62.79,88.95 -94.68,129.67 -33.76,43.1 -182.9,227.62 -210.11,234.85 -26.99,53.72 -97.39,114.14 -144.38,151.46 -221,175.51 -202.06,196.51 -518.86,357.52 -81.11,41.22 -183.88,82.71 -280.36,105.44l-18.98 11.08c-60.34,43.36 -251.52,80.06 -322.03,91.96 -58.94,9.94 -361.02,60.45 -393.73,29.98 -18.42,-18.41 13.26,-87.8 22.36,-111.58l10.27 -18.5c9.47,-45.51 62.77,-227.56 85.98,-252.22 -1.5,-36.69 71.87,-234 89.98,-258.55 10.35,-47.16 41.19,-120.55 73.29,-157.31l9.61 -11.41c0.51,-0.62 1.42,-1.71 1.88,-2.26l3.78 -4.41c27.59,-58.4 143.08,-151.54 210.67,-183.49 101.6,-48.02 189.87,-62.48 307.39,-86.44 54.54,-11.11 114.15,-14.44 168.33,-26.18 96.49,-20.91 231.69,-33.13 337.9,-56.34 215.96,-47.19 399.76,-128.41 564.95,-268.67l74 -78.54c50.58,-62.5 110.69,-158.38 145.76,-248.04 29.92,-76.47 81.51,-217.57 88.68,-302.63 -12,10.92 -39.18,76.34 -50.5,95.64 -61.32,104.58 -52.61,86.68 -118.26,177.83 -38.9,54.01 -56.43,74.89 -105.46,114.87 -14.5,11.82 -22.88,22.42 -37.93,34.02 -15.88,12.22 -21.26,22.58 -37.71,34.18 -16.06,11.33 -26.75,19.46 -42.17,29.89 -223.73,151.38 -370.42,181 -641.1,239.37l-425.1 87.24c-16.12,3.48 -43.49,15.2 -57.73,5.29 23.33,-13.38 36.26,-27.12 58.28,-42.97l174.26 -121.18c32.27,-16.23 64.23,-45.15 99.07,-66.77 16.27,-10.1 32.33,-19.65 50.39,-30.17 18.18,-10.6 34.13,-25.51 50.27,-30.56 5.95,-14.61 -0.43,-4.19 9.93,-15.15l35.12 -28.35c17.27,-13.48 29.62,-21.2 50.63,-34.16 130.38,-80.41 179.87,-114.71 303.82,-199.97 92.14,-63.38 200.48,-149.29 292.54,-215.21 18.68,-13.38 77.62,-57.95 91.05,-73.89 -83.2,7.95 -435.34,210.06 -530.68,273.47 -53.89,35.83 -108.7,70.97 -162.62,104.05 -91.09,55.89 -461.47,288.87 -530.67,341.52 -22.21,16.9 -96.06,86.57 -108.34,90.02 13.26,-49.88 77.47,-114.83 97.38,-143.4l77.21 -104.67c29.84,-24.65 10.67,-24.31 30.71,-29.1l63.56 -71.57c22.06,-23.63 45.97,-41.2 69.53,-65.81 9.02,-9.42 25.97,-22.66 36.79,-30.97 38.17,-29.3 64.68,-54.59 116.13,-91.28 161.83,-115.41 175.25,-125.31 335.49,-214.71 142.62,-79.58 422.65,-194.13 594.75,-227.27 52.54,-10.11 181.19,-30.34 203.69,-71.32 -60.27,-32.3 -265.19,-23.43 -344.5,-17.77 -308.32,22 -595.3,112.68 -855.69,261.24 -117.06,66.78 -220.77,147.99 -317.71,241.33 -44.06,42.42 -129.2,158.72 -160.44,212.33 -50.97,87.47 -86.09,149.16 -126.8,245.8 -8.93,21.2 -38.76,118.22 -58.18,129.74 -1.49,-113.01 39.76,-218.07 24.54,-382.28 -6.33,-68.33 -54.19,-285.81 -100.45,-310.27 -15.12,14.69 -24.43,40.62 -36.07,62.25 -40.82,75.81 -150.69,215.26 -196.3,303.27 -11.27,21.75 -21.67,41.18 -32.8,64.74 -10.24,21.69 -19.66,57.16 -29.24,73.01 0.98,3.23 50.13,84.54 66.69,161.64 30.36,141.41 24.14,265.87 -3.83,404.3 -6.13,30.35 -13.28,60.33 -19.42,89.75 -6.64,31.77 -7.44,61.16 -14.46,91.62l-59.22 283.2c-23.14,-3.22 -17.07,-10.06 -23.72,-54.06l-39.96 -200.93c-0.38,-19.32 -22.77,-85.77 -28.9,-111.4 -78.78,-329.71 -77.8,-663.79 92.25,-966.58 97.89,-174.27 174.74,-271.61 286.69,-437.39 29.92,-44.29 89.59,-141.62 103.92,-191.68 -21.23,2.38 -6.27,-6.52 -18.29,16.51 -13.89,26.62 -5.93,10.62 -25.86,27.73 -4.45,3.82 -7.67,8.32 -12.1,13.4 -9.1,10.42 -17.46,15.72 -26.83,27.98l-70.99 85.43c-127.52,159.29 -325.92,378.79 -398.29,558.65 -74.42,184.99 -41.6,250.09 -66.91,357.24 -37.15,17.61 -114.54,31.08 -164.66,33.2l-4.49 26.14c-20.45,2.34 -5.44,2.65 -9.88,-7.4zm228.75 -3770.44l66.98 0 0.91 0 235.93 0c1.62,0.26 3.14,0.54 4.53,0.84l15.31 5.85c38.79,11.04 84.67,-7.48 123.45,3.55l8.95 3.75c1.02,0.34 2.02,0.87 3.07,1.17 13.93,3.92 26.63,0.09 40.34,1.99 30.11,4.17 -5.54,5.66 29.73,8.37 17.31,1.33 23.14,-2.66 39.51,2.82 11.72,3.93 -8.35,1.84 15.85,5.32 26.88,3.87 29.74,-2.12 61.08,6.65l10.68 2.02c5.95,1.14 3.88,0.14 10.68,2.02l6.19 2.28c2.77,0.91 -2.32,0.86 9.52,3.18 16.36,3.21 -12.83,-1.26 7.63,0.84 9.41,0.96 9.34,-0.54 19.17,1.99 1.09,0.28 2.09,0.78 3.13,1.1 1.03,0.32 2.01,0.9 3.01,1.23l9.56 3.14c6.06,1.42 8.55,0.9 14.63,2.3 1.16,0.27 2.25,0.55 3.38,0.86l37.01 9.55c1.02,0.32 2.01,0.88 3.02,1.21 1.01,0.33 1.99,0.91 3.01,1.23l18.23 2.94c24.38,2.13 48.69,13.12 71.96,21.17l116.32 36.08c7.46,2.43 9.28,2.3 16.21,4.96l56.63 23.8c0.85,0.44 1.93,1.01 2.78,1.45l59.11 25.56c0.89,0.42 1.97,0.95 2.89,1.34 0.94,0.4 2.04,0.86 3.01,1.22l45.03 18.47c0.86,0.44 1.96,0.98 2.82,1.42l115.71 53.62c0.87,0.43 1.96,0.98 2.83,1.41l19.75 9.88c3.23,1.61 8.06,4.03 11.29,5.64l8.47 4.23c5.74,2.86 -0.11,-0.02 5.66,2.81 0.87,0.43 1.96,0.97 2.84,1.39l31.13 19.67c0.76,0.5 1.83,1.14 2.62,1.61l175.14 95.8c0.79,0.47 1.85,1.11 2.62,1.61 0.76,0.49 1.77,1.22 2.5,1.73l68.02 46.29c33.8,18.3 24.06,17.18 45.44,30.76 0.78,0.49 1.92,1.03 2.73,1.5l10.9 6.03c5.3,3.75 6.99,6.6 10.88,10.29l12.08 9.08c4.84,2.84 2.82,0.94 8.32,4.39 13.47,8.47 -6.84,-5.83 5.04,3.42 8.29,6.46 2.17,1.67 8.59,8.35l23.17 19.15c13.77,7.83 25.09,23.99 39.55,32.43l5.58 2.88c21.42,12.51 35.34,37.35 56.47,49.36 0.83,0.47 1.98,0.96 2.8,1.44 0.81,0.47 1.94,1.01 2.73,1.5 13.61,8.54 -6.95,-5.89 5.04,3.42 9.26,7.19 3.18,2.82 10.67,10.5l65.57 57.2c4.71,4.75 6.85,6.9 10.56,10.61 22.85,22.84 104.98,97.82 119.82,121.47l50.8 59.27c0.5,0.79 1.03,1.92 1.51,2.73 9.31,15.96 22.96,24.62 32.36,39.6l7.51 13.66c10.6,15.26 28.91,27.09 37.77,42.67 8.49,14.93 23.53,24.3 32.42,39.54 1.05,1.78 1.84,3.79 2.89,5.58 3.77,6.47 0.08,1.56 4.92,7.78l32.08 39.88c6.47,9.14 11.14,9.74 17.88,20.23l6 10.92c0.49,0.77 1.17,1.81 1.68,2.56l42.34 59.26c1.04,1.53 7.95,10.21 9.13,12.04l120.18 205.78c0.58,1.16 2.24,4.49 2.82,5.65l18.35 36.69c0.43,0.86 0.97,1.95 1.41,2.82 0.43,0.86 0.98,1.96 1.41,2.82 0.58,1.16 2.24,4.49 2.82,5.64l19.76 39.52c0.43,0.86 0.97,1.95 1.41,2.82l62.61 136.35c1.39,4.46 1.1,5.08 2.74,9.96l2.3 6.17c0.39,0.92 0.92,2 1.33,2.91l2.87 5.59c0.43,0.85 1.02,1.92 1.46,2.77l71.91 194.79c0.32,1.07 0.72,2.13 1.01,3.23l22.08 75.28c0.35,1 0.84,2.04 1.18,3.05 0.34,1.02 0.81,2.06 1.13,3.11l35.82 141.98c1.51,7.68 0.4,12.42 1.44,19.73 4.16,29.26 4.31,-4.07 7.86,30.23 0.98,9.46 -0.62,9.27 2.02,19.16 7.92,29.79 5.22,39.26 8.4,50.86 8.29,30.25 4.99,39.88 9.62,53.88 3.69,11.17 0.42,-7.6 4.67,12.26 2.6,12.11 -0.34,29.18 0.69,41.64 2.91,34.95 4.05,-0.17 8.42,29.68 3.67,25.09 -4.29,55.22 3.15,77.29 3.94,11.71 1.78,-8.3 5.32,15.85 0.67,4.6 0.4,15.68 0.35,20.81 -0.13,14.17 -0.15,28.3 -0.15,42.48 0,54.04 6.47,257.87 -4.23,287.87 -0.35,0.97 -0.96,1.95 -1.29,2.94l-3.19 26.45c0.21,69.02 1.65,30.92 -7.38,73.05 -2.6,12.11 0.34,29.19 -0.69,41.65 -2.93,35.18 -4.24,-0.36 -8.4,29.7 -1.9,13.71 1.92,26.39 -2,40.33l-12.17 59.8c-0.33,1.03 -0.84,2.03 -1.12,3.11 -0.31,1.12 -0.63,2.17 -0.87,3.37 -1.54,7.69 -0.4,12.39 -1.44,19.72 -4.15,29.16 -11.89,39.46 -16.04,68.63l-28.9 127.73c-0.32,1.03 -0.86,2.03 -1.18,3.05l-57.03 188.5c-0.35,1.03 -0.76,2.12 -1.11,3.13 -0.34,1.01 -0.78,2.1 -1.13,3.11 -0.35,1 -0.78,2.09 -1.13,3.1l-11.57 35c-1.45,4.51 -1.98,6.33 -3.1,9.59 -0.44,1.3 -1.82,4.91 -2.26,6.21l-7.33 22.3c-0.35,1.01 -0.79,2.09 -1.13,3.1 -0.35,1.03 -0.76,2.11 -1.09,3.14l-35 87.77c-0.34,1.09 -0.55,2.26 -0.89,3.35 -0.33,1.09 -0.54,2.27 -0.88,3.35l-16.05 38.99c-1.81,5.96 -0.53,3.3 -2.94,9.75l-29.52 59.39c-0.58,1.16 -2.24,4.49 -2.82,5.64 -0.43,0.87 -0.98,1.96 -1.41,2.83l-2.82 5.64c-0.43,0.87 -0.98,1.96 -1.41,2.82 -0.43,0.87 -0.98,1.96 -1.41,2.83l-7.06 14.11c-0.58,1.16 -2.24,4.48 -2.82,5.64 -0.43,0.87 -0.98,1.96 -1.41,2.82l-2.82 5.65c-1.1,2.18 -1.18,2.35 -2.83,5.64 -0.43,0.87 -0.98,1.96 -1.41,2.82 -0.43,0.87 -0.98,1.96 -1.41,2.83 -0.43,0.86 -0.98,1.95 -1.41,2.82 -0.43,0.86 -0.98,1.96 -1.41,2.82 -0.43,0.87 -0.98,1.96 -1.41,2.82 -1.65,3.3 -3.04,6.07 -4.24,8.47 -0.58,1.16 -2.24,4.49 -2.82,5.64 -1.2,2.4 -2.58,5.17 -4.23,8.47l-67.82 118.45c-0.48,0.79 -1.06,1.9 -1.56,2.67l-12.54 17.09c-0.65,1.1 -2.31,4.42 -2.89,5.58l-15.36 26.97c-3.16,4.19 -3.12,3.71 -5.43,7.28l-77.75 112.75c-2.92,4.87 -0.93,2.76 -4.45,8.25 -8.79,13.67 6.14,-7.01 -3.45,5.01l-14.42 15.21c-0.53,0.74 -1.15,1.83 -1.64,2.6 -0.49,0.78 -1.03,1.92 -1.5,2.73 -2.89,4.91 -0.85,2.72 -4.4,8.31l-14.04 15.58c-8.6,9.74 -2.4,2.27 -8.41,12.76l-35.81 48.86c-14.28,15.31 -34.93,29.72 -45.91,47.22 -0.49,0.79 -1.03,1.92 -1.5,2.73l-64.93 79.01c-23.6,23.14 -37.86,48.67 -46.84,54.75l-13.73 7.44c-4.26,2.67 -8.64,6.68 -11.58,9.59l-84.16 76.7c-17.17,11.93 -28.97,34.92 -76.2,67.74 -4.3,2.98 -6.59,5.55 -11.06,10.11 -23.94,24.38 -35.1,26.33 -54.79,46.81l-250.65 168.45c-20.26,11.96 -37.91,27.84 -59.16,38.21 -0.87,0.42 -1.96,0.96 -2.84,1.39l-50.81 25.38c-0.87,0.43 -1.96,0.98 -2.83,1.41l-27.33 15c-0.99,0.75 -3.6,3.13 -4.59,3.87l-131.88 62.86c-1,0.37 -2.12,0.74 -3.15,1.09l-22.3 7.33c-0.89,0.41 -1.94,0.99 -2.82,1.41 -0.86,0.43 -1.92,1.03 -2.77,1.46l-89.91 37.09c-3.91,1.31 -2.31,0.94 -6.22,2.25 -1.02,0.35 -2.11,0.76 -3.14,1.09l-6.52 1.95c-5.9,1.85 -3.31,0.56 -9.69,3.01l-19.81 9.83c-0.93,0.4 -2.04,0.85 -3.01,1.22l-133.63 44.16c-7.69,1.7 -10.14,0.96 -18.12,3.05 -1.1,0.29 -2.16,0.69 -3.23,1.01l-25.24 8.63c-3.9,1.34 -2.3,0.92 -6.2,2.26 -1.02,0.35 -2.11,0.76 -3.13,1.1 -39.33,13.21 -75.35,16.65 -92.43,21.88 -1.33,0.4 -4.71,2.01 -6.03,2.43l-37.01 9.56c-1.13,0.3 -2.22,0.58 -3.38,0.85l-49.5 9.77c-34.75,3.59 0.16,5.73 -34.02,8.31l-33.88 4.22c-13.65,4.67 -17.31,0.19 -39.34,7.23l-28.38 5.48c-30.19,0.85 -27.35,8.63 -72.19,8.24l-35.42 6.92c-11.03,3.14 -24.47,1.88 -36.44,1.66 -5.04,-0.09 -16.28,-0.35 -20.85,0.32 -24.01,3.5 -23.79,8.64 -50.91,8.35l-106.08 -0.25c-6.91,0.61 -4.74,0.22 -10.77,1.94 -24.11,6.86 -41.77,10.08 -68.21,1.17 -1.01,-0.34 -2.02,-0.87 -3.07,-1.17 -42.56,-12.11 -160.84,9.39 -202.71,-4.72l-36.66 -5.68c-70.77,0.75 -48.58,-4.8 -72.34,-8.09 -11.67,-1.62 -25.35,1.39 -37.03,-1.07 -15.22,-3.2 -18.12,-7.81 -34.44,-7.89l-255.42 -49.38c-7.72,-1.78 -9.98,-0.97 -18.02,-3.15l-75.08 -22.28c-1.24,-0.27 -2.35,-0.38 -3.62,-0.62l-68.37 -20.53c-1.01,-0.35 -2.09,-0.78 -3.1,-1.13 -1.01,-0.35 -2.09,-0.79 -3.1,-1.13l-146.36 -48.38c-0.96,-0.37 -2.07,-0.83 -3,-1.23l-19.82 -9.81c-7.51,-2.85 -8.67,-2.21 -16.37,-4.81l-23.02 -10.84c-0.85,-0.44 -1.94,-1 -2.79,-1.44 -0.85,-0.44 -1.93,-1.01 -2.79,-1.45l-27.4 -10.7c-1.06,-0.33 -2.22,-0.61 -3.26,-0.97l-6.15 -2.31c-0.92,-0.39 -2,-0.93 -2.89,-1.35l-36.44 -14.36c-0.97,-0.36 -2.08,-0.82 -3.02,-1.21l-81.77 -41c-1.16,-0.58 -4.48,-2.24 -5.64,-2.82l-146.92 -77.45c-5.74,-2.96 -3.47,-1.45 -8.18,-4.52 -24.43,-15.91 17.13,12.93 -4.88,-3.59 -2.22,-1.66 -6.81,-5.61 -6.97,-5.72l-55.93 -32.98c-0.02,-0.01 -5.78,-2.65 -5.8,-2.66 -0.88,-0.43 -2.02,-0.91 -2.89,-1.35l-184.64 -128.62c-9.78,-8.62 -2.22,-2.38 -12.77,-8.4 -15.52,-8.85 -28.82,-25.8 -45.12,-35.31 -6.47,-3.78 -1.57,-0.09 -7.78,-4.92 -0.98,-0.77 -3.52,-3.21 -4.41,-4.06l-228.45 -220.28c-2.23,-2.17 -7.85,-7.47 -8.63,-8.31 -2.07,-2.22 -5.1,-5.79 -5.84,-6.86 -0.52,-0.74 -1.14,-1.83 -1.62,-2.61l-30.48 -37.25c-8.52,-8.49 -12.56,-12.77 -21.17,-21.17 -5.55,-5.42 -7.21,-6.42 -10.7,-10.47l-14.69 -23.4c-7.15,-9.2 -2.83,-3.22 -10.51,-10.66l-103.09 -133.97c-0.48,-0.8 -1.02,-1.94 -1.52,-2.72l-53.26 -73.74c-0.5,-0.77 -1.08,-1.88 -1.57,-2.67l-16.93 -25.4c-0.49,-0.79 -1.01,-1.93 -1.49,-2.73l-15.6 -22.51c-0.65,-1.09 -2.31,-4.42 -2.89,-5.57l-26.78 -45.19c-0.44,-0.87 -0.94,-1.99 -1.37,-2.87l-52.14 -96.02c-1.2,-2.4 -2.59,-5.17 -4.23,-8.47l-59.2 -118.6c-0.44,-0.85 -1.01,-1.93 -1.45,-2.79 -15.16,-29.58 -30.83,-58.49 -41.4,-89.83 -3.1,-9.2 -0.1,-1.33 -3.62,-9.08l-61.4 -150.26c-0.35,-1.07 -0.59,-2.24 -0.92,-3.31l-10.4 -31.94c-0.34,-1.02 -0.76,-2.11 -1.11,-3.13l-44.64 -150.09c-3.02,-9.93 -1.49,-7.26 -3.56,-17.6l-8.47 -33.87c-1.61,-8.09 -0.76,-4.28 -2.55,-10.15l-26.59 -121.57c-1.35,-3.94 -0.69,3.79 -3.34,-9.37 -1.95,-9.69 -0.02,3.74 -0.88,-7.58 -3.48,-46.05 -6.91,-28.92 -8.58,-50.69l-7.5 -51.76c-1.39,-6.62 -0.89,-13.54 -0.85,-20.32 0.04,-6.78 0.55,-13.7 -0.85,-20.32 -4.01,-19.05 -7.96,-26.84 -7.5,-51.76 0.59,-32.14 -9.06,-39.94 -8.66,-71.77 0.77,-61.88 -6.33,-46.53 -8.55,-71.89l1 -304.12c2.78,-12.88 2.02,-5.44 3.39,-9.31 0.35,-0.97 0.96,-1.95 1.29,-2.94 0.34,-1.01 0.87,-2.01 1.17,-3.06 3.46,-12.15 1.93,-27.41 1.78,-40.56 -0.16,-13.15 -1.68,-28.41 1.77,-40.56 0.3,-1.05 0.83,-2.06 1.17,-3.07l4.68 -12.25c4.07,-18.96 -2.11,-37.96 3.79,-55.48 8.11,-24.11 2.51,-39.35 11.04,-65.16 0.33,-1.02 0.86,-2.02 1.15,-3.08 2.88,-10.46 0.6,-21.53 8.41,-50.86 2.63,-9.89 1.03,-9.69 2.01,-19.15 3.47,-33.54 4.69,-0.64 8.16,-34.18 0.97,-9.45 -0.6,-9.27 2.01,-19.16l45.88 -178.48c0.32,-1.05 0.77,-2.09 1.06,-3.17 0.3,-1.13 0.58,-2.22 0.85,-3.38l3.09 -18.09c0.28,-1.1 0.68,-2.16 1,-3.22 0.32,-1.05 0.8,-2.09 1.13,-3.11l38.23 -118.4c0.6,-1.15 2.42,-4.31 2.98,-5.49 3.65,-7.7 0.51,0.1 3.68,-9.02l4.95 -16.22c0.34,-1.01 0.78,-2.09 1.12,-3.11 0.35,-1.01 0.79,-2.09 1.13,-3.1l4.95 -16.22c0.35,-1.01 0.72,-2.15 1.1,-3.13 0.37,-0.97 0.83,-2.08 1.23,-3.01l56.44 -138.29c0.44,-0.85 1.01,-1.93 1.45,-2.78l28.24 -64.89c1.34,-2.64 2.5,-4.98 4.24,-8.46l35.25 -70.59c0.42,-0.88 0.95,-1.98 1.37,-2.86 0.43,-0.88 0.93,-2 1.37,-2.87l55.07 -101.56c0.47,-0.8 1.11,-1.86 1.61,-2.63 0.87,-1.34 8.42,-10.72 9.24,-11.91 0.52,-0.75 1.2,-1.79 1.69,-2.55l67.06 -106.5c0.51,-0.74 1.3,-1.7 1.82,-2.42 1.68,-2.31 5.44,-6.78 5.64,-7.06l7.79 -13.37c0.5,-0.77 1.17,-1.81 1.69,-2.55l78.48 -107.79c0.64,-1.09 2.24,-4.48 2.89,-5.58l57.69 -77.77c3.27,-3.81 5.41,-5.36 10.7,-10.46l21.85 -24.72c16.04,-27.47 44.58,-44.93 62.81,-68.42 4.82,-6.21 1.16,-1.33 4.93,-7.78l7.8 -13.36c0.76,-0.98 3.21,-3.52 4.05,-4.42 0.04,-0.05 6.29,-6.09 6.45,-6.25l55.11 -54.96c22.9,-22.89 84.34,-93.04 114.3,-110.07l231.54 -191.79c0.78,-0.5 1.92,-1.03 2.72,-1.51l25.46 -16.87c4.72,-2.88 2.91,-1.16 8.15,-4.55 0.76,-0.5 1.81,-1.17 2.55,-1.69 0.73,-0.5 1.7,-1.29 2.41,-1.82 4.87,-3.57 7.05,-5.84 9.51,-7.42l62.84 -38.76c5.88,-4.35 1.5,-1.63 7.52,-5.19l19.99 -9.64c8.23,-4.46 3.86,-2 7.86,-4.83 1.02,-0.72 3.69,-3.04 4.68,-3.79l35.31 -19.73c1.17,-0.56 4.56,-2.16 5.73,-2.74l25.4 -16.92c0.77,-0.5 1.83,-1.14 2.62,-1.61l17 -8.41c37.88,-18.45 17.75,-13.38 50.7,-29.73l56.56 -28.11c0.86,-0.43 1.96,-0.98 2.82,-1.41l61.58 -31.55c13.69,-9.91 30.04,-13.98 45.73,-22.01 0.86,-0.43 1.94,-1 2.79,-1.44l67.86 -29.5c3.6,-1.75 6.16,-3.24 8.34,-4.37 1.14,-0.6 4.44,-2.29 5.59,-2.88l88.12 -34.64c1.04,-0.34 2.16,-0.69 3.21,-1.02l214.41 -69.22c8,-1.56 3.48,-0.41 10.25,-2.46 1.33,-0.4 4.87,-1.86 6.16,-2.3l62.12 -18.31c13.73,-3.53 19.25,-0.48 33.32,-4.79l16.15 -5.01c10.53,-2.14 7.38,-0.41 17.57,-3.6l138.67 -22.19c35.28,-2.71 -0.37,-4.2 29.74,-8.37 17.13,-2.37 32.4,-0.05 49.29,-5.74l6.36 -2.1c26.8,-5.78 56.03,3.31 82.99,-1.68l6.36 -2.11c0.52,-1.21 2.04,-0.71 2.95,-1.29 3.11,-1.98 7.45,-3.33 12.54,-4.23z"/>
    <path class="fil6" d="M1613.82 7962.99l237.07 0c0,-22.38 3.07,-22.61 9.45,-41.34 0.35,-1.03 0.72,-2.14 1.08,-3.16l3.46 -9.24c0.32,-1.07 0.72,-2.13 1,-3.23l7.19 -30.92c1.21,-3.52 2.45,-7.51 4.18,-12.75l9.57 -28.53c0.34,-1.01 0.8,-2.07 1.15,-3.08l17.95 -62.48c0.35,-1.01 0.78,-2.1 1.13,-3.11l11.08 -35.49c1.31,-6.85 0.48,-7.06 2.42,-14.5l31.44 -104.03c1.32,-6.86 0.48,-7.06 2.43,-14.51 0.29,-1.1 0.69,-2.15 1.01,-3.22l18.06 -62.37c0.34,-1.01 0.83,-2.06 1.18,-3.06l67.73 -228.6c0.71,-2.05 1.95,-5.71 3.22,-9.48l5.52 -15.64c0.32,-1.07 0.72,-2.13 1.01,-3.23 1.72,-6.57 0.87,-4.91 1.93,-10.76l44.27 -154.7c0.29,-1.1 0.69,-2.16 1.01,-3.23l18.22 -62.21c0.58,-1.81 3.82,1.65 4.24,-16.93l16.93 0 16.44 72.46c1.98,10.32 0.39,7.65 3.44,17.73 0.4,1.33 1.86,4.87 2.3,6.16l8.59 25.28c0.34,1.02 0.76,2.11 1.1,3.13l11.58 43.46c0.26,1.18 0.52,2.27 0.82,3.41l9.63 28.47c0.45,1.29 1.82,4.91 2.27,6.2l9.63 28.47c1.95,7.44 1.11,7.65 2.43,14.5l36.59 120.05c0.34,1 0.84,2.04 1.17,3.05l5.19 24.45c0.26,1.18 0.52,2.27 0.82,3.41l4.47 12.47c1.63,4.78 2.44,8.04 4.06,12.87l4.47 12.46c0.35,1.03 0.7,2.16 1.04,3.2l42.29 143.97c1.72,5.12 2.74,8.84 4.11,12.83l26.69 87.61c0.34,1.02 0.81,2.06 1.13,3.1 0.32,1.07 0.72,2.13 1.01,3.23l24.39 81.44c3.04,10.08 1.45,7.4 3.43,17.73l36.63 120c0.36,0.99 0.88,2.03 1.22,3.02 0.35,0.99 0.88,2.01 1.2,3.03 0.33,1.05 0.81,2.06 1.09,3.15 2.25,8.77 1.7,10.16 1.7,19.46l76.2 0c4.99,12.36 19.02,8.89 33.68,8.67 17.77,-0.27 34.71,1.37 50.99,-4.44 3.87,-1.38 -3.57,-0.61 9.31,-3.39 6.19,-1.34 13.66,-1.1 20.08,-1.09 15.59,0.05 31.2,0.25 46.81,0.25 0,-45.46 20.1,-89.69 31.87,-133.24 1.79,-6.64 0.88,-4.8 2,-10.69l67.22 -250.28c0.87,-4.41 0.53,-6.16 1.62,-11.08l32.76 -115.41c1.27,-3.78 2.5,-7.43 3.21,-9.48l2.31 -6.16c0.32,-1.07 0.72,-2.13 1.01,-3.23l19.98 -85.85c0.26,-1.18 0.52,-2.27 0.82,-3.41l3.32 -9.39c0.34,-1 0.8,-2.07 1.15,-3.08l6.46 -18.94c0.33,-1.02 0.81,-2.06 1.13,-3.1l25.4 -93.14c2.04,-6.76 0.9,-2.24 2.45,-10.25l29.11 -110.59c0.34,-1 0.84,-2.04 1.17,-3.05l7.13 -30.97c0.32,-1.04 0.86,-2.04 1.18,-3.06 0.32,-1.02 0.86,-2.03 1.18,-3.06l3.54 -17.62c1.56,-8 0.41,-3.48 2.46,-10.24l19.4 -65.27c0.32,-1.06 0.76,-2.09 1.05,-3.18l7.41 -30.69c0.32,-1.05 0.77,-2.09 1.06,-3.18l4.94 -24.68c0.32,-1.05 0.79,-2.09 1.13,-3.11 0.34,-1.01 0.83,-2.05 1.18,-3.05 0.35,-1.01 0.81,-2.08 1.15,-3.08 1.35,-3.92 1.73,-5.74 3.06,-9.65 0.35,-1.02 0.72,-2.14 1.07,-3.16l18.94 -74.19c0.34,-1.01 0.83,-2.06 1.18,-3.06l5.28 -15.88c0.35,-1.01 0.81,-2.08 1.15,-3.08l10.66 -40.14c0.32,-1.06 0.77,-2.1 1.06,-3.18l7.41 -30.69c0.32,-1.06 0.76,-2.09 1.05,-3.18 2.38,-8.79 1.63,-12.64 3.94,-21.46l15 -40.04c-28.57,-10.34 -23.72,-8.6 -59.26,-8.47 -25.58,0.09 -169.47,-4.8 -185.59,0.69 -11.58,3.94 -4.5,-3.74 -9.15,7.78 -10.85,4.38 -7.04,11.47 -9.77,24.1l-1.79 6.67c-2.82,9.74 0.55,-3.5 -2.32,6.15l-24.22 90.08c-0.32,1.03 -0.86,2.03 -1.18,3.06 -0.32,1.06 -0.76,2.09 -1.05,3.18l-5.06 24.57c-1.27,4.17 -1.08,1.95 -2.35,6.12l-24.23 98.54c-0.32,1.02 -0.86,2.02 -1.17,3.06l-58.09 234.01c-0.33,1.02 -0.86,2.02 -1.18,3.05l-9.52 37.05c-0.31,1.13 -0.59,2.21 -0.86,3.38 -0.28,1.22 -0.39,2.34 -0.64,3.59l-11.91 60.05c-0.41,1.33 -2.02,4.71 -2.44,6.03 -1.91,6.11 -0.92,1.9 -2.58,10.12 -1.38,6.86 -0.48,6.91 -2.51,14.42l-17.99 70.91c-0.39,1.31 -1.95,4.82 -2.35,6.12 -0.32,1.06 -0.76,2.09 -1.06,3.18l-25.4 101.6c-0.3,1.12 -0.58,2.21 -0.85,3.38l-10.77 48.49c-3.38,14.35 -4.15,1.67 -7.11,22.53 -0.76,5.38 -0.2,15.15 -0.2,20.96l-16.93 0 -12.54 -59.42c-0.34,-1.02 -0.83,-2.06 -1.18,-3.06l-17.21 -50.53c-0.32,-1.06 -0.72,-2.12 -1,-3.22 -1.95,-7.44 -1.12,-7.65 -2.43,-14.51l-17.44 -54.52c-0.35,-1.03 -0.72,-2.15 -1.07,-3.17l-43.21 -147.29c-0.31,-1.04 -0.79,-2.08 -1.13,-3.1l-10.92 -31.41c-1.95,-7.45 -1.12,-7.65 -2.43,-14.51l-2.45 -10.25c-0.41,-1.33 -1.86,-4.86 -2.31,-6.16l-35.02 -121.61c-0.35,-1.02 -0.72,-2.14 -1.07,-3.16 -0.35,-1.04 -0.64,-2.2 -0.99,-3.24l-8.47 -29.64c-0.24,-1.31 -0.24,-2.44 -0.49,-3.74l-12.37 -38.43c-0.34,-1.02 -0.81,-2.06 -1.13,-3.1 -0.32,-1.07 -0.72,-2.13 -1.01,-3.23 -0.3,-1.14 -0.56,-2.23 -0.82,-3.41l-68.85 -231.72c-0.34,-1.06 -0.62,-2.21 -0.96,-3.27l-16.17 -55.79c-3.4,-12.95 3.71,-8.07 -8.27,-12.91 -5.13,-12.72 9.26,-6.27 -16.46,-8.94 -36.24,-3.75 -147.11,0.48 -186.74,0.48l0 8.46c-15.91,6.43 -11.16,30 -23.33,65.57l-18.03 53.93c-0.35,1.06 -0.63,2.21 -0.97,3.27l-3.1 9.6c-0.35,1.01 -0.78,2.09 -1.13,3.1l-4.25 12.68c-0.35,1.05 -0.64,2.21 -0.98,3.25l-44.28 158.93c-0.4,1.33 -1.86,4.86 -2.31,6.16l-13.62 49.88c-0.28,1.1 -0.68,2.16 -1,3.22l-43.79 146.72c-0.34,1.02 -0.81,2.06 -1.13,3.1 -0.32,1.07 -0.72,2.13 -1.01,3.23l-19.36 73.77c-0.24,1.26 -0.35,2.38 -0.62,3.61l-46.74 156.46c-0.32,1.07 -0.72,2.12 -1.01,3.22l-41.47 132.1c-0.33,1.04 -0.81,2.06 -1.09,3.14 -2.25,8.77 -1.71,10.17 -1.71,19.46l-28.61 -64.51c-0.35,-1.01 -0.85,-2.05 -1.18,-3.06l-2.14 -6.33c-0.3,-1.14 -0.56,-2.23 -0.82,-3.41l-92.25 -369.19c-1.79,-6.65 -0.88,-4.81 -2,-10.7l-12.7 -50.8c-0.32,-1.02 -0.86,-2.02 -1.17,-3.05l-62.77 -263.2c-2.4,-17.08 -2.6,-9.78 -3.72,-13.21l-9.55 -37.02c-0.35,-1.01 -0.81,-2.08 -1.16,-3.08l-19.2 -73.94c-3.42,-12.93 3.73,-8.06 -8.26,-12.9 -6.48,-16.05 -14.89,-8.55 -55.03,-8.47l-190.5 0.01 18.93 95.36c0.29,1.09 0.74,2.12 1.06,3.18l19.28 73.85c0.32,1.05 0.77,2.09 1.06,3.17l2.49 14.45c1.55,8 0.41,3.48 2.45,10.24l3.46 9.24c1.35,3.92 1.74,5.74 3.06,9.65l12.88 46.38c0.32,1.06 0.77,2.09 1.06,3.18l14.54 61.66c0.34,1.01 0.83,2.05 1.18,3.05l4.21 12.73c0.34,1.02 0.72,2.14 1.07,3.16 0.34,1 0.8,2.07 1.15,3.08 0.34,1 0.84,2.05 1.18,3.06l9.48 37.08c0.32,1.06 0.76,2.09 1.06,3.18 2.79,10.34 1.96,14.41 5.05,24.57l2.36 6.12c0.32,1.05 0.76,2.09 1.05,3.17l72.68 278.69c0.31,1.04 0.79,2.09 1.13,3.11 0.34,1.01 0.83,2.05 1.18,3.05 0.34,1.01 0.8,2.08 1.15,3.08 0.35,1.02 0.72,2.14 1.07,3.17l4.21 12.72c0.45,1.29 1.9,4.82 2.31,6.16l7.17 30.92c0.33,1.02 0.86,2.03 1.18,3.06 0.32,1.06 0.76,2.09 1.06,3.18l22.15 83.68c0.34,1 0.84,2.04 1.17,3.06l44.41 167.26c1.79,6.64 0.89,4.81 2,10.7l23.33 90.96c0.36,1.02 0.73,2.14 1.08,3.16l46.42 173.71c0.32,1.02 0.88,2.01 1.22,3.02 1.01,3.03 0.85,-2.68 3.27,9.42 1.24,6.16 0.88,9.84 0.88,16.06z"/>
    <path class="fil6" d="M3146.28 7962.99l905.93 0c0,-25.52 2.76,-17.56 6.7,-31.41 4.77,-16.83 1.19,-51.3 1.46,-70.51 0.18,-13.18 -0.24,-11.77 3.25,-22.14 10.74,-31.88 5.53,-35.36 5.53,-79.14l-677.33 0 0 -389.47 474.6 0.47c28.42,-0.11 22.87,-3.85 24.93,-8.93 12.72,-5.14 6.28,9.26 8.94,-16.46 0.57,-5.56 -0.41,-23.38 -0.54,-30.17 -0.84,-45.78 4.82,-26.89 8.33,-50.94 3.6,-24.68 -5.63,-36.02 4.54,-63.4 4.45,-11.99 14.3,-26.24 -4.34,-33.77 -5.62,-13.92 0.84,-8.68 -55.27,-8.71 -3.95,0 -12.96,-0.07 -16.49,0.45 -24.36,3.56 -1.45,4.5 -25.81,8.06l-418.89 0.2 0 -330.2 622.4 0.11c12.87,-2.62 8.12,2.52 12.59,-8.57 10.6,-4.28 9.29,13.74 8.47,-46.57 -1.03,-75.55 9.47,-17.74 8.39,-101.68l2.71 -35.39c2.7,-7.52 0.13,4.65 5.83,-11.1l-8.15 -4.54c-13.51,-5.59 -20.71,-4.2 -38.33,-4.01 -280.7,3.13 -578.21,0.09 -859.45,0.09l0 1337.73z"/>
    <path class="fil6" d="M6278.94 7962.99l245.54 0 0 -567.27c24.44,0 98.93,3.21 117.69,-0.84 20.43,-4.4 -7.23,-8.18 51.6,-7.67l304.84 0.05c0,-34.11 -1.75,-72.66 -0.31,-106.14 1.47,-34.17 8.77,5.3 8.77,-97.06l-482.59 0 0 -347.14 588.53 0.11c12.87,-2.62 8.12,2.52 12.6,-8.57 12.72,-5.14 6.27,9.26 8.94,-16.46 0.58,-5.68 -0.4,-23.09 -0.46,-30.09 -0.1,-12.64 -1.47,-43.55 0.82,-54.21 4.03,-18.68 8.22,-0.27 7.71,-47.33 -0.19,-18.37 -0.08,-36.74 -0.08,-55.11l-825.76 -0.27c-13.42,-0.14 -24.23,-1.97 -32.15,5.95l-3.42 5.05c-0.44,0.92 -0.82,2.06 -1.15,3.09l-1.12 1323.91z"/>
    <path class="fil6" d="M7786.01 6836.92l414.86 0 0 1126.07 245.53 0 0 -1126.07 397.94 0c0,-116.85 5.57,-66.43 8.62,-101.44 2.69,-30.75 -0.16,-77.67 -0.16,-110.22l-1037.31 -0.15c-8.77,1.04 -7.65,-1.85 -15.33,5.83l-5.36 11.57c-1.48,7.32 -0.37,32.91 -0.33,42.01 0.4,89.65 -3.5,39.66 -8.26,72.17 -2.61,17.83 -0.2,59.86 -0.2,80.23z"/>
    <path class="fil6" d="M4272.35 7962.99c25.31,0 51.32,-0.66 76.51,-0.32 5.26,0.08 10.66,0.05 15.78,1.16 1.16,0.25 2.2,0.62 3.3,0.93l6.01 2.46c30.76,10.98 399.2,2.89 482.79,4.43 34.17,0.63 30.05,0.31 33.67,-8.66l228.6 0c0.74,-33.24 8.72,0.47 8.47,-46.57 -0.21,-37.56 6.48,-21.88 8.62,-46.41 2.69,-30.74 -0.16,-77.67 -0.16,-110.22l-609.59 0 0.1 -1113.47c-2.61,-12.87 2.52,-8.12 -8.57,-12.6 -4.46,-11.04 0.28,-6.04 -12.59,-8.57l-227.26 5.79c-0.61,0.62 -1.4,1.6 -1.9,2.33 -3.49,5.02 -1.13,-2.31 -3.46,9.24l-0.32 1320.48z"/>
    <path class="fil6" d="M5279.88 7962.99l76.51 -0.32c26.51,0.37 22.94,3.79 25.09,4.55 30.7,10.95 405.42,3.63 482.75,4.39 7.4,0.07 17.38,0.52 24.41,-1 23.95,-5.16 -7.37,-3.09 22.2,-7.42 46.35,-6.78 162.04,-0.2 215.7,-0.2 0,-25.5 -2.69,-31.38 4.24,-50.8 10.48,-29.38 0.28,-60.34 4.43,-88.7 3.57,-24.37 7.25,-2.91 8.57,-33.76 0.39,-9 -0.3,-20.58 -0.3,-29.94l-618.07 0 0 -1134.53 -245.53 0 0 1337.73z"/>
    <path class="fil6" d="M7354.21 7962.99l245.53 0 0.1 -1316.67c-2.61,-12.87 2.53,-8.12 -8.57,-12.6 -5.45,-13.5 3.03,-8.7 -50.79,-8.47l-186.27 0.01 0 1337.73z"/>
    <path class="fil6" d="M4644.88 9199.12l143.93 0 0 -550.33c19.26,7.77 0.02,-2.9 11.69,13.71l64.53 100.57c4.01,5.33 2.7,2.87 5.51,7.19l8.5 16.9c0.43,0.88 0.91,2.02 1.35,2.88l168.95 275.55c1.66,2.22 5.61,6.81 5.73,6.97 2.83,4.01 0.37,-0.37 4.83,7.87 0.61,1.13 2.18,4.55 2.75,5.72l6.9 14.27c3.55,6.02 0.83,1.64 5.18,7.51l44.51 69.8c7.88,10.35 7.79,1.37 8.24,21.39l127 0 0 -778.93 -143.94 0 0 499.53c-11.04,-4.46 -12.53,-12.84 -22.46,-28.34l-8.5 -16.9c-0.12,-0.26 -3.88,-7.85 -4.24,-8.46 -3.55,-6.02 -0.83,-1.64 -5.18,-7.51l-105.11 -161.6c-0.44,-0.87 -0.91,-2 -1.34,-2.89 -3.87,-7.99 1.21,2.19 -2.66,-5.8l-21.33 -33.7c-0.49,-0.79 -1.07,-1.9 -1.57,-2.67 -0.49,-0.77 -1.17,-1.81 -1.68,-2.55l-16.42 -25.91c-0.43,-0.89 -0.91,-2.02 -1.33,-2.91 -0.57,-1.17 -2.14,-4.59 -2.75,-5.72l-55.19 -84.51c-0.43,-0.88 -0.9,-2.01 -1.33,-2.9 -0.57,-1.17 -2.14,-4.59 -2.75,-5.72l-12.35 -17.28c-0.51,-0.75 -1.19,-1.79 -1.68,-2.55l-6.12 -10.82c-2.3,-3.56 -2.26,-3.08 -5.42,-7.28 -4.01,-5.33 -2.71,-2.86 -5.51,-7.19l-36.81 -56.32 -143.93 0 0 778.93z"/>
    <path class="fil6" d="M6727.67 8919.72l2.79 14.15c0.33,0.93 0.84,2.08 1.23,3.01l2.9 5.56c1.18,2.27 4.48,7.7 4.65,8.04 11.58,23.35 9.91,75.49 -4.26,99.31l-77.25 41.28c-1.07,0.3 -2.12,0.75 -3.16,1.08l-12.4 4.54c-17.76,3.73 -137.62,3.71 -154.02,-0.94 -1.05,-0.3 -2.06,-0.83 -3.07,-1.17 -19.85,-6.66 -39.67,-6.31 -59.99,-11.97 -1.12,-0.32 -2.21,-0.6 -3.37,-0.87l-40.22 -10.58c-1.04,-0.34 -2.16,-0.69 -3.19,-1.04l-31.47 -10.86c-1.02,-0.34 -2.06,-0.82 -3.11,-1.13l-39.39 -11.41 -8.57 42.23c0.12,5.58 1.03,21.52 0.58,25.98 -2.64,25.71 3.75,11.33 -8.94,16.46l0 50.8 28.66 5.21c0.99,0.35 2.06,0.82 3.05,1.17l28.67 9.44c1.23,0.27 2.35,0.37 3.61,0.62l23.58 6.05c15.28,4.89 31.35,0.45 47.05,3.75 17.16,3.62 7.62,6.17 26.09,7.78l274.89 -9.05c1.36,-0.18 2.41,-0.28 3.71,-0.53 1.21,-0.23 2.26,-0.53 3.41,-0.82 1.11,-0.27 2.13,-0.73 3.18,-1.05l85.4 -50.07c13.07,-13.36 22.78,-21.65 30.44,-37.29l30.08 -63.05c2.65,-14.24 -0.58,-16.31 3.83,-30.05 3.45,-10.76 0.42,7.41 4.64,-12.29 1.1,-5.13 1.07,-10.51 1.16,-15.78l-28.47 -124.56 -129.77 -98.83 -42.06 -17.21c-1.29,-0.44 -4.82,-1.9 -6.16,-2.3l-24.76 -4.88c-1.1,-0.29 -2.16,-0.68 -3.22,-1.01l-55.98 -15.99c-1.08,-0.29 -2.12,-0.73 -3.17,-1.05l-68.64 -20.26c-5.52,-1.75 -8.18,-1.78 -13.1,-3.85 -11.65,-4.89 -32.97,-19.13 -38.83,-28.89 -0.03,-0.04 -4.06,-8.29 -4.17,-8.54 -0.52,-1.21 -1.96,-4.76 -2.43,-6.03l-2.05 -6.41c-10.52,-32.61 -13.38,-48.39 8.8,-86.89l38.02 -25.49c1.02,-0.33 2.1,-0.76 3.12,-1.1l19.1 -6.3c20.09,-7.09 56.93,-6.29 82.67,-6.54 14.45,-0.14 18.88,-0.91 30.77,3.1 22.38,7.54 54.49,1.15 76.2,8.46 15.38,5.18 54.39,5.53 79.14,5.53l5.53 -53.75c5.1,-15.15 2.94,-38.02 2.94,-56.32l-22.26 -11.6c-13.69,-6.43 -35.58,-6.62 -48.41,-10.86 -26.34,-8.71 -142.06,-2.89 -170.63,-2.94 -34.29,-0.06 -55.59,3.15 -82.66,10.47l-37.33 9.24c-1,0.34 -2.06,0.83 -3.02,1.22l-16.77 8.62c-0.87,0.44 -1.99,0.94 -2.86,1.37 -0.87,0.44 -2.01,0.93 -2.87,1.37l-22.65 15.45c-35.51,22.7 -55.32,51.56 -70.2,90.66 -2.45,6.45 -3.99,12.98 -6.2,19.2 -9.26,26.07 -10.08,96.67 0,125.06l14.48 36.32c0.44,0.87 0.97,1.97 1.4,2.84l23.35 31.68c22.98,22.41 34.47,33.13 62.81,47.26l141.23 53.5c1.07,0.32 2.13,0.72 3.23,1.01l61.72 14.47c21.85,7.24 41.09,11.36 59.6,25.07 0.71,0.53 1.71,1.28 2.44,1.79l10.78 6.15c9.36,4.27 -1.72,4.76 20.15,5.25z"/>
    <path class="fil6" d="M3205.55 9148.32c11.34,0.25 5.72,-1.17 14.14,2.79 0.84,0.4 16.16,16.4 50.76,33.91l11.15 5.78c1.15,0.59 4.32,2.41 5.51,2.96l43.21 11.83c56.76,15.33 83.38,7.51 100.89,13.41 11.45,3.85 -7.62,0.38 12.25,4.68 1.47,0.32 2.93,0.6 4.37,0.84l34.98 0c19.16,-2.75 36.94,-8.58 57.33,-8.31l58.68 -9.05c1.36,-0.18 2.41,-0.28 3.71,-0.53l9.64 -3.05c1,-0.34 2.04,-0.86 3.03,-1.21l18.93 -6.47c1,-0.34 2.05,-0.84 3.06,-1.17l17.09 -4.08 0 -50.8c-11.02,-4.45 -6.07,0.29 -8.57,-12.59 -0.59,-3.04 0.16,-21.3 0.25,-25.65l-4.07 -29.8c-3.92,-9.11 1.29,7.97 -4.54,-8.16l-64.64 20.03c-1.02,0.32 -2.02,0.88 -3.03,1.21l-59.17 12.79c-45.7,3.98 -92.53,4.31 -134.67,-9.59 -1.04,-0.34 -2.16,-0.69 -3.2,-1.03l-12.54 -4.39c-5.52,-1.75 -8.18,-1.78 -13.09,-3.84 -0.93,-0.39 -2.06,-0.86 -2.94,-1.3l-9.73 -7.2c-10.39,-7.65 -21.04,-10.64 -29.45,-21.35l-10.53 -19.11c-0.43,-0.87 -0.96,-1.97 -1.39,-2.84l-25.24 -76.35c-3.24,-10.26 -2.45,-5.01 -2.98,-18.2 -1.24,-31.36 -8.64,-38.91 -8.42,-76.24 0.18,-30.43 -6.5,-70.69 1.79,-99.84l4.92 -12.02c3.91,-13.9 0.12,-26.6 1.99,-40.34 2.67,-19.6 5.21,-13.09 8.21,-29.89 0.24,-1.33 0.22,-2.46 0.47,-3.77l26.76 -62.14c0.53,-0.71 1.36,-1.64 1.87,-2.36 5.24,-7.45 18.52,-32.7 41.5,-47.4l44.17 -19.33c41.62,-7.79 48.47,-14.78 114.03,-9.05 35.42,3.09 -1.84,6.25 33.75,8.58 5.22,0.35 17.04,-0.75 21.15,0.02 12.94,2.43 8.2,-2.6 12.67,8.49l59.27 0 5.53 -28.34c3.96,-11.83 3.28,-16.38 3.09,-30.78 -0.48,-35.74 -2.01,-30.89 8.31,-59.42 -5.73,0 -15.68,0.57 -20.96,-0.2 -27.6,-4.04 -18.21,-7.81 -55.51,-7.99l-25.13 -4.51c-21.81,-7.77 -152.08,-8.77 -177.88,-0.08l-104.35 39.58c-0.88,0.43 -1.97,0.97 -2.84,1.39l-40.89 31.08c-14.06,14.14 -32.65,27.81 -43.75,45.16l-7.12 14.04c-0.43,0.88 -0.95,1.98 -1.38,2.86l-12.82 25.27c-0.43,0.87 -1.01,1.93 -1.42,2.82l-17.16 50.57c-0.35,1 -0.84,2.04 -1.18,3.05l-11.55 43.49c-1.51,7.68 -0.39,12.43 -1.43,19.73 -6.47,45.3 -6.46,-10.43 -7.71,81.19 -0.12,8.49 0.12,11.32 -2.09,19.08l-2.46 6.01c-1.29,3.61 -0.64,-3.27 -3.4,9.31 -1.53,7.01 -1.53,33.64 0,40.64 0.26,1.17 0.63,2.2 0.94,3.3l4.92 12.02c8.05,28.29 -1.76,62.36 7.14,90.23l11.12 43.91c0.99,7.18 -0.09,12.47 1.29,19.88 2.28,12.25 1.34,5.38 3.09,9.61l14.41 27.92c11.86,23.67 21.36,42 41.01,60.59 11.2,10.6 16.35,7.41 16.85,29.72z"/>
    <path class="fil6" d="M5796.34 8496.39c-0.41,18.41 -16.05,23.36 -35.28,62.08 -0.43,0.87 -0.97,1.96 -1.41,2.83l-17.09 33.7c-0.55,1.19 -2.07,4.66 -2.55,5.92l-19.87 81.73c-0.24,1.3 -0.24,2.44 -0.51,3.73l-6.2 19.2c-6.58,23.96 2.72,53.19 -2.59,77.83l-5.85 15.32c-4.91,17.25 -3.56,43.37 -1.94,61.88l4.39 16.78c8.43,23.61 2.33,56.16 9.72,79.18l42.37 126.96c10.62,21.68 18.43,22.25 39.56,53.57l81.8 53.67c1.16,0.58 4.4,2.33 5.6,2.87 7.6,3.47 0.13,0.54 9.06,3.64 18.21,6.34 11.86,7.1 32.45,9.88 10.1,1.36 12.56,-0.53 23.12,2.29 47.37,12.63 54.26,2.12 76.28,8.38l15.32 5.85c1.52,0.33 3.07,0.61 4.65,0.84l30.76 0c10.04,-1.18 19.3,-3.28 25.96,-5.52 19.12,-6.44 46.59,-1.63 67.77,-8.43 4.21,-1.35 0.27,-1.13 10.16,-2.54l51.37 -12.13c8.94,-3.08 -3.97,-4.71 20.15,-5.25l0 -50.8c-11.02,-4.45 -6.07,0.29 -8.57,-12.59 -2.57,-13.28 2.15,-32.32 -0.58,-45.99 -2.55,-12.75 -1.22,-4.76 -3.24,-9.46 -3.92,-9.11 1.3,7.97 -4.54,-8.16 -0.97,0.35 -2.24,0.33 -2.67,1.56 -0.44,1.25 -2.11,1.24 -2.73,1.51l-43.23 11.8c-18.6,6.42 -11.47,7.3 -32.23,10.11l-32.14 5.95c-1.02,0.34 -2.02,0.87 -3.07,1.17 -21.45,6.03 -104.62,6.02 -126.68,-1.02l-83.53 -39.23c-11.03,-9.59 -17.96,-26.72 -23.84,-39.66l-18.42 -53.54c-5.64,-16.07 -1.95,-41.88 -8.23,-59.51 -8.53,-23.96 -6.93,-139.09 -2.46,-154.86l6.7 -31.41c0.26,-9.65 -0.7,-10.06 1.77,-19.39l19.31 -65.36c0.39,-0.92 0.92,-2 1.33,-2.9 0.4,-0.9 0.99,-1.95 1.41,-2.82l11.31 -22.57c9.12,-15.75 28.87,-35.4 43.89,-45l25.17 -12.93c0.86,-0.43 1.89,-1.06 2.77,-1.47 29.74,-13.58 95.14,-20.34 129.26,-12.99l89.6 16.24c13.03,2.59 8.24,-3.08 12.84,8.32l16.94 0c7.89,-21.81 2.78,5.43 7.79,-21.83 4.15,-22.57 -6.59,-14.15 9.14,-20.5l0 -84.67c-26.79,0 -32.21,-8.99 -59.27,-8.46 -14.68,0.28 -18.78,1.14 -30.92,-2.95l-28.03 -5.83c-42.25,-0.58 -111.58,-9.07 -149.81,3.21l-52.86 14.88c-1.05,0.34 -2.21,0.63 -3.24,0.99 -1.01,0.35 -2.15,0.72 -3.13,1.1 -1.26,0.48 -4.73,2 -5.93,2.54l-22.41 11.46c-1.16,0.58 -4.49,2.24 -5.64,2.82l-47.38 28.83c-10.8,11.42 -16.03,18.8 -31.65,19.15z"/>
    <path class="fil6" d="M3755.88 9199.12l491.07 0c0,-37.81 1.78,-22.63 6.69,-39.87 4.65,-16.36 1.77,-59.4 1.77,-78.66l-355.6 0 0 -660.4 -143.93 0 0 778.93z"/>
    <polygon class="fil6" points="4323.15,9199.12 4467.08,9199.12 4467.08,8420.19 4323.15,8420.19 "/>
    <polygon class="fil6" points="5415.34,9199.12 5550.81,9199.12 5550.81,8420.19 5415.34,8420.19 "/>
    <path class="fil6" d="M5287.98 2760.21c-7.04,11.88 -9.3,104.27 -16.56,135.56 -25.81,111.37 -115.99,205.94 -258.3,200.55 -92.25,-3.49 -148.02,-42.58 -202.87,-103.59 -24.16,-26.87 -40.27,-61.21 -50.2,-102.45 -5.88,-24.37 -5.76,-45.81 -6.42,-70.82l-4.62 -51.55c-5.19,-15.2 1.15,-5.25 -8.1,-13.28 -36.68,130.48 -52.05,214.76 14.7,330.83 98.89,171.98 353.97,192.61 485.44,50.8 20.43,-22.04 19.81,-10.93 48.61,-57.39 27.8,-44.84 46.8,-100.88 45.28,-162.07 -1,-40.5 -22.54,-137.58 -46.96,-156.59z"/>
    <path class="fil6" d="M5987.17 3729.64c11.39,-6.73 21.4,-17.88 32.58,-26.31 12.05,-9.09 23.22,-17.5 36.74,-26.77 15.89,-10.91 62.07,-42.81 69.23,-52.12 53.73,-219.4 114.28,-412.33 208.93,-617.94 14.84,-32.24 27.45,-62.31 42.57,-92.92 15.45,-31.28 34.44,-58.08 44.96,-89.85 -38.72,24.33 -94.54,97.2 -122.55,134.94 -95.63,128.87 -200.26,366.61 -246.72,515.14l-72.56 224.46c-7.94,33.67 5.67,30.53 6.82,31.37z"/>
    <path class="fil6" d="M3509.86 3493.7c19.85,-1.33 9.5,-1.91 14.39,-5.34 -4.57,-23.26 -22.59,-62.51 -36.33,-71.99l-50.1 -41.85c-10.77,-9.14 -10.26,-13.1 -20.41,-21.72l-47.11 -37.77c-11.83,-9.61 -9.68,-12.68 -20.44,-21.67 -67.21,-56.18 -208.9,-144.4 -289.77,-139.49 20.7,28.99 79.56,68.78 108.07,92.47l275.68 215.35c16.29,10.06 54.31,21.53 66.02,32.01z"/>
   </g>
   <g>
    <path class="fil7" d="M4276.27 3829.22c150,-23.74 195.12,256.83 17.41,264.49 -48.49,2.09 -75.22,-9.81 -95.83,-35.46 -88.44,-110.06 -15.27,-214.2 78.42,-229.03zm1458.99 1.41c154.31,-25.46 201.82,234.32 34.9,261.85 -157.48,25.98 -212.49,-232.53 -34.9,-261.85zm463.14 -59.35c12.54,-24.1 28.65,-37.4 48.83,-52.27 131.5,-96.91 181.48,-136.31 366.14,-128.72 26.63,1.1 185.88,-2.44 190.07,-0.33 -23.95,30.21 -229.33,91.46 -285.76,107.95l-319.28 73.37zm-2383.22 -8.84c-29.9,-0.1 -127.79,-22.21 -163.73,-29.82 -170.45,-36.12 -251.14,-57.33 -405.19,-132.51 -15.32,-7.47 -19.82,-8.92 -28.93,-19.59 63.78,3.19 120.26,13.81 187.19,10.87 51.67,-2.26 139.31,-7.74 185.78,7.62 70.47,23.28 212.59,116.23 224.88,163.43zm2742.45 -270.23l-36.54 -0.61c3.3,-21.71 17.63,-33.26 21.56,-49.75 50.59,-190.05 178.22,-350.27 366.85,-372.46 45.17,-5.31 158.51,-6.86 205.89,14.48 6.47,2.91 5.43,2.94 8.44,5.25 17.66,110.9 -112.55,288.94 -159.02,327.33 -38.68,31.96 -103.67,67.07 -170.22,74.63 -81.44,9.26 -158.99,-2.3 -236.96,1.13zm-3069.71 -75.84c13.74,9.48 31.76,48.73 36.33,71.99 -4.89,3.43 5.46,4.01 -14.39,5.34 -181.67,-12.9 -349.55,50.24 -488.1,-134.82 -49.58,-66.22 -92.9,-187.69 -97.87,-270.78 110.07,-52.45 294.68,-14.62 380.77,42.91l59.39 59.18c37.16,42.07 110.3,170.74 123.87,226.18zm1252.99 -661.74c17.14,-24.72 27.33,-50.06 45.56,-68.74 63.03,-64.63 125.71,-99 230.96,-97.71 108.64,1.33 242.3,76.46 270.55,172.03 24.42,19.01 45.96,116.09 46.96,156.59 1.52,61.19 -17.48,117.23 -45.28,162.07 -28.8,46.46 -28.18,35.35 -48.61,57.39 -131.47,141.81 -386.55,121.18 -485.44,-50.8 -66.75,-116.07 -51.38,-200.35 -14.7,-330.83zm1384.81 869.81c-7.16,9.31 -53.34,41.21 -69.23,52.12 -13.52,9.27 -24.69,17.68 -36.74,26.77 -11.18,8.43 -21.19,19.58 -32.58,26.31 -4.79,3.97 8.35,6.99 -11.83,3.93 -25.82,-44.49 -62.74,-146.8 -77.16,-203.03 -53.63,-209.19 -5.22,-483.11 131.43,-651.27l63.38 -76.4c60.73,-66.65 157.76,-129.21 241.17,-169.68 86.27,-41.87 308.53,-131.18 410.14,-138.17 1.06,33.04 -35.01,135.86 -45.53,172.92 -15.91,56.06 -27.51,122.51 -39.07,180.9 -44.11,222.95 -106.47,362.22 -231.47,534.71 -49.83,68.78 -98.47,106.29 -168.15,157.99 -67.46,50.07 -100.98,59.94 -134.36,82.9zm-2059.56 98.29c-21.45,-6.49 -119.47,-71.46 -131.59,-86 -63.78,-29.11 -213.9,-137.05 -261.35,-188.45 -147.46,-159.78 -247.88,-393.36 -288.89,-603.89 -10.96,-56.26 -27.19,-126.68 -43.17,-181.47 -8.9,-30.55 -50.58,-143.31 -48.69,-167.07 71.25,-4.98 339.81,101.23 412.03,137.85 268.82,136.31 419.2,344.51 460.95,648.38 22.72,165.35 -26.8,304.24 -99.29,440.65zm927.96 -129.25c-4.25,36.74 -211.87,276.81 -253.61,333.25 -13.46,18.2 -14.33,35 -41.84,40.92 -6.53,-13.71 -17.93,-41.5 -18.17,-60.39 -10.73,-8.21 -9.57,-9.85 -16.03,-23.91l-31.97 -69.56c-36.87,-91.96 -84.45,-191.07 -127.99,-278.32 -50.22,-100.65 -134.97,-269.15 -171.04,-370.83 -99.38,-280.2 -18.37,-507.08 112.77,-751.05 16.69,-31.05 36.27,-58.57 48.95,-86.7 5.37,8.28 4.61,9.02 -0.37,24.2 -55.66,169.59 -101.3,463.28 -38.29,623.07 47.71,120.99 129,198.26 220.52,282.92 111.63,103.27 278.96,82.54 342.49,157.36 21.05,24.79 27.03,64.19 22.12,102.91 -3.57,28.24 -23.5,59.14 -47.54,76.13zm965.54 -926.27c-3.11,9.81 -16.39,28.57 -23.2,38.41 -9.12,13.18 -20.29,21.87 -34.28,28.52 -10.72,-12.46 -16.89,-33.84 -22.16,-51.93l-156.27 -268.52c-184.37,-360.23 -64.46,-538.91 149.71,-820.86 11.98,-15.77 34.46,-41.15 54.12,-46.78 47.16,42.18 53.15,56.99 90.88,115.9 137.52,214.68 251.59,543.65 128.48,784.01 -36.6,71.45 -71.39,123.1 -127.53,177.49 -9.14,8.86 -46.13,38.8 -59.75,43.76zm-1805.64 33.6c-2.02,13.89 -6.44,23.74 -17.14,31.16 -18.23,-4.83 -39.82,-28.37 -45.36,-43.52 -41.13,-19.22 -118.23,-127.8 -147.07,-167.74 -86.07,-119.22 -112.52,-248.38 -95.36,-408.12 12.35,-114.93 52.33,-218.88 96.54,-313.92 30.22,-64.97 71.44,-137.11 108.65,-200.45 14.43,-24.57 33.01,-38.04 42.64,-58.78 33.72,7.74 49.56,28.59 66.03,47.59l46.11 59.65c8.38,11.4 14,20.44 22.78,32.33 7.12,9.67 14.17,19.01 22.98,32.08 14.44,21.39 29.09,42.41 42.07,63.84 137.01,226.21 140.78,424.27 19.07,660.53 -12.29,23.86 -27.85,46.61 -40.53,69.42 -13.97,25.15 -24.55,42.75 -38.63,67.21 -17.66,30.68 -62.44,108.57 -82.78,128.72zm1161.72 -585.56c0.03,105.39 -124.86,217.1 -228.02,240.88 -126.83,29.23 -254.27,-27.97 -320.24,-124.92 -98.73,-145.08 -68.47,-296.06 40.24,-429.89 16.37,-20.15 31.99,-42.32 49.72,-64.55l106.06 -125.31c56.68,-108.5 67.64,-60.26 112.16,-1.6 16.59,21.86 28.86,41.04 47.49,62.46l101.66 118.57c35.5,36.82 65.18,77.98 86.09,138.46 12.6,36.46 32.31,155.04 4.84,185.9zm-2479.14 2703.74l52.19 24.93c154.25,91.82 429.3,197.8 608.08,241.11 74.82,18.13 155.44,38.43 230.59,53.03 233.83,45.43 543.63,34.51 736.51,114.16 28.35,11.7 64.36,33.32 91.09,48.76 23.22,13.41 62.31,54.56 86.41,57.99 -35.55,-64.46 -132.06,-142.91 -211.67,-182.09 -246.18,-121.18 -672.47,-120.81 -964.37,-212.69 -38.72,-12.19 -108.73,-38.04 -143.23,-55.7 -41.6,-21.29 -89.32,-43.56 -127.39,-67.28 -36.59,-22.8 -83.01,-53.21 -117.27,-81.84 -38.33,-32.02 -65.1,-59.66 -96.67,-98.15 -110.57,-134.81 -213.62,-369.45 -232.62,-550.27 -21.9,-72.75 -24.11,-102.79 -30.97,-183.13 35.11,19.76 40.32,43.31 67.14,70.54l107.14 96.03c243.1,189.92 514.79,346.76 793.3,493.69 58.24,30.73 117.39,62.51 175.45,95.38 22.03,12.47 161.85,92.93 178.16,84.05l-227.42 -142.32c-65.04,-19.85 -343.09,-205.32 -416.92,-254.23 -43.93,-29.1 -88.82,-59.9 -132.06,-88.16 -94.8,-61.97 -460.42,-337.02 -469.95,-411.34 25.51,6.88 58.95,23.08 84.75,34.42l264.42 91.2c119.34,40.03 239.6,80.69 345.78,132.68 163.06,79.82 308.19,164.17 446.35,268.93l115.93 92.37c16.97,12.52 12.77,7.47 15.38,3.34 -20.26,-16.69 -40.55,-44.36 -61.27,-64.06 -18.79,-17.87 -45.99,-36.44 -68.37,-54.27 -93.44,-74.43 -192.11,-142.88 -298.22,-201.28 -270.98,-149.13 -417.84,-201.85 -718.03,-281.02 -49.57,-13.08 -164.41,-29.7 -177.22,-66.74 47.03,-28.5 282.84,-23.31 349.36,-16.22 151.09,16.11 175.57,16.58 328.86,47.48 91.39,18.43 204.07,58.44 285.45,91.18 93.1,37.45 170.94,75.5 252.84,123.83 79.1,46.67 210.01,134.62 271.25,203 15.63,17.45 32.46,27.6 48.28,44.9 38.49,42.11 91.12,112.17 123.09,160.8 125.26,190.56 124.2,239.8 214.19,435.77 11.57,-16.75 -8.58,-91.45 -11.78,-117.28 -5.07,-41.07 -9.03,-80.76 -13.71,-122.4 -15.56,-138.51 38.22,-328.36 100.93,-449.65 60.99,-117.96 124.2,-185.72 200.02,-282.96 10.29,-13.19 20.47,-23.11 31.11,-36.33 26.8,-33.27 21.41,-21.99 34.73,-37.37 37.37,-43.16 123.61,-152.82 148.73,-194.07 112.7,-185.03 59.99,-228.35 66.29,-323.5 20.71,-12.91 43.51,-19.57 65.06,-32.43 79.68,-47.55 83.88,-40.02 170.8,-108.48 17.7,-13.94 28.82,-31.7 45.58,-47.4 48.66,-45.59 82.99,-105.3 109.35,-169.89 39.78,-97.47 51.08,-215.17 40.66,-328.96 -10.08,-110.09 -55.02,-261.85 -58.38,-318.8 13.77,6.42 1.88,-1.64 11.74,8.55 35.52,36.72 144.78,287.93 154.08,320.38 89.51,312.15 -2.21,507.29 -137.54,773.65 -32.08,63.15 -131.77,290.54 -159.37,328.06 -14.33,50.06 -74,147.39 -103.92,191.68 -111.95,165.78 -188.8,263.12 -286.69,437.39 -170.05,302.79 -171.03,636.87 -92.25,966.58 6.13,25.63 28.52,92.08 28.9,111.4 8.27,-8.13 2.78,11.86 6.9,-16.19 0.75,-5.08 0.05,-15.66 -0.05,-21.13 -18.47,-61.96 0.12,-319.68 12,-394.36 9.85,-61.85 19.48,-120.06 32.53,-180.16 11.44,-52.67 35.08,-116.21 42.54,-163.68 9.58,-15.85 19,-51.32 29.24,-73.01 11.13,-23.56 21.53,-42.99 32.8,-64.74 45.61,-88.01 155.48,-227.46 196.3,-303.27 11.64,-21.63 20.95,-47.56 36.07,-62.25 46.26,24.46 94.12,241.94 100.45,310.27 15.22,164.21 -26.03,269.27 -24.54,382.28 19.42,-11.52 49.25,-108.54 58.18,-129.74 40.71,-96.64 75.83,-158.33 126.8,-245.8 31.24,-53.61 116.38,-169.91 160.44,-212.33 96.94,-93.34 200.65,-174.55 317.71,-241.33 260.39,-148.56 547.37,-239.24 855.69,-261.24 79.31,-5.66 284.23,-14.53 344.5,17.77 -22.5,40.98 -151.15,61.21 -203.69,71.32 -172.1,33.14 -452.13,147.69 -594.75,227.27 -160.24,89.4 -173.66,99.3 -335.49,214.71 -51.45,36.69 -77.96,61.98 -116.13,91.28 -10.82,8.31 -27.77,21.55 -36.79,30.97 -23.56,24.61 -47.47,42.18 -69.53,65.81l-63.56 71.57c12.82,-3.61 94.17,-83.18 107.1,-95.72l72.32 -58.99c133.91,-95.49 189.69,-146.07 354.42,-234.06 121.26,-64.78 327.31,-159.25 456.03,-204.43 128.95,-45.26 261.03,-99.05 389.11,-140.57 -7.14,22.71 -33.73,59.47 -47.74,71.49l-85.11 84.15c-68.22,62.6 -142.47,118.43 -215.99,173.65 -41.88,31.46 -87.82,61.12 -131.52,92.82 -53.6,38.89 -491.09,327.46 -554.7,346.5 -16.14,5.05 -32.09,19.96 -50.27,30.56 -18.06,10.52 -34.12,20.07 -50.39,30.17 -34.84,21.62 -66.8,50.54 -99.07,66.77 7.46,5.22 0.6,3.52 11.16,1.54 0.03,0 10.67,-5.04 11.02,-5.24l333.92 -174.6c116.06,-59.53 233.31,-128.17 344.17,-193.44 175.75,-103.47 420.6,-269.6 553.76,-423.95 15.6,-18.08 26.74,-38.16 54.41,-48.9l-25.02 190.41c-7.17,85.06 -58.76,226.16 -88.68,302.63 -35.07,89.66 -95.18,185.54 -145.76,248.04l-74 78.54c-165.19,140.26 -348.99,221.48 -564.95,268.67 -106.21,23.21 -241.41,35.43 -337.9,56.34 -54.18,11.74 -113.79,15.07 -168.33,26.18 -117.52,23.96 -205.79,38.42 -307.39,86.44 -67.59,31.95 -183.08,125.09 -210.67,183.49 45.74,-2.66 39.61,-61.19 187.04,-105.47 220.4,-66.21 272.29,-61.75 496.13,-88.91 87.33,-10.6 171.23,-19.16 257.24,-35.02 212.12,-39.12 470.85,-122.23 668.3,-207.24 42.05,-18.11 170.88,-92.59 201.83,-96.56 58.76,-124.75 49.86,-102.53 98.02,-234.05 96.14,-262.55 138.41,-579.55 133.8,-861.55 -8.09,-495.2 -136.81,-901.79 -387.86,-1276.29 -41.78,-62.33 -160.26,-234.57 -213.51,-285.99 -50.5,-48.77 -165.06,-174.41 -207.94,-206.75 -13.69,-10.33 -33.25,-25.61 -44.53,-36.1 -16.07,-14.94 -27.84,-26.53 -44.78,-39.64 -11.39,-8.81 -11.24,-8.58 -22.56,-19.81 -42.73,-42.37 -257.58,-186.03 -318.16,-219.43 -49.85,-27.48 -70.6,-28.84 -95.86,-69.52 -59.9,-96.44 -162.49,-254.92 -277.98,-116.24 -38.12,-2.98 -145.69,-38.83 -188.96,-51.76 -202.96,-60.69 -407.8,-89 -623.88,-87.18 -193.13,1.63 -529.75,50.56 -718.25,115.55 -23.96,8.26 -63.02,28.61 -87.23,32.47 -24.92,-35.21 -41.49,-69.2 -109.12,-60.11 -56.85,7.64 -107.64,74.92 -133.41,116.83 -54.76,89.05 -6.41,47.69 -127.78,122.26 -34.04,20.91 -71.2,41.33 -106.23,63.24 -39.46,24.67 -290.72,217.42 -304.15,233.39 -9.09,10.8 -8.97,13.27 -19.21,22.99l-188.6 188.37c-7.51,8.3 -12.39,10.49 -19.55,18.28 -61.28,66.63 -170.6,214.13 -213.49,286.16l-180.03 319.23c-17.9,37.41 -32.43,79.63 -47.79,117.56 -31.89,78.72 -59.04,162.16 -82.99,247.03 -42.54,150.74 -80.77,432.6 -79.55,585.47 0.87,109.59 8.95,209.58 16.94,317.6 13.34,180.41 98.77,484.79 171.7,658.18 16.85,40.07 37.85,75.13 52.17,113.55z"/>
    <path class="fil7" d="M5091.91 1759.11c-82.22,37.59 -50.5,185.21 53.09,159.58 100.77,-24.93 26.75,-196.09 -53.09,-159.58z"/>
   </g>
   <path class="fil8" d="M1664.62 8149.25l-42.33 0c-0.74,32.93 -8.5,-0.08 -8.74,46.35 -0.26,52.16 -3.58,41.81 8.74,46.79 5.12,12.69 -9.26,6.3 16.46,8.94l50.43 0.37c23.96,5.16 -7.37,3.09 22.21,7.42 26.86,3.93 78.31,2.02 100.11,-5.32 15.74,-5.31 293.23,-7.62 315.84,0 21.96,7.4 8.77,5.88 45.24,5.56 372.78,-3.28 756.8,-0.04 1130.34,-0.04 857.95,0 1715.9,0 2573.86,0l453.12 -0.16c36.21,3.16 -9.04,8.78 71.81,8.63l2044.69 0 17.26 -46.24c0.74,-20.18 -0.32,-43.27 -0.32,-63.83 -99.92,0 -54.01,-8.83 -97.12,-8.71l-237.11 0.45c-29.58,4.32 1.74,2.25 -22.21,7.42 -22.27,4.8 -471.8,1.97 -480.92,0 -24.65,-5.32 6.04,-1.47 -18.61,-6.78l-5849.62 -0.85c-32.77,0 -53.84,3.02 -82.23,-3.37 -2.49,-0.56 -2.54,-1.36 -4.85,-1.31 -10.85,0.23 1.97,-4.44 -6.05,4.68z"/>
   <path class="fil9" d="M4205.03 6041.34c114.67,4.23 232.79,11.64 347.72,19.46 76.43,5.2 287.23,18.18 351.31,2.52l-1.34 -34.32c-31.88,-65.43 -58.93,-214.72 -86.39,-237.18 -48.48,31.72 -732.74,-79.71 -833.18,-100.8 -127.46,-26.77 -250.48,-66.48 -366.77,-107.5 -128.74,-45.41 -235.13,-101.85 -335.05,-136.7 17.95,46.85 96.92,106.52 115.17,128.15 42.17,49.97 127.29,106.17 183.13,147.01 88.9,65.02 260.48,167.52 358.74,212.82 42.5,19.59 87.6,41.26 131.73,58.8 34.88,13.86 100.47,39.44 134.93,47.74z"/>
   <path class="fil10" d="M4740.91 2754.63c9.25,8.03 2.91,-1.92 8.1,13.28l4.62 51.55c0.66,25.01 0.54,46.45 6.42,70.82 9.93,41.24 26.04,75.58 50.2,102.45 54.85,61.01 110.62,100.1 202.87,103.59 142.31,5.39 232.49,-89.18 258.3,-200.55 7.26,-31.29 9.52,-123.68 16.56,-135.56 -28.25,-95.57 -161.91,-170.7 -270.55,-172.03 -105.25,-1.29 -167.93,33.08 -230.96,97.71 -18.23,18.68 -28.42,44.02 -45.56,68.74z"/>
  </g>
 </g>
</svg>
